<?xml version="1.0" encoding="utf-8"?>
<!-- Generator: Adobe Illustrator 23.1.0, SVG Export Plug-In . SVG Version: 6.00 Build 0)  -->
<svg version="1.1" id="Layer_1" xmlns="http://www.w3.org/2000/svg" xmlns:xlink="http://www.w3.org/1999/xlink" x="0px" y="0px"
	 viewBox="0 0 100 100" style="enable-background:new 0 0 100 100;" xml:space="preserve">
<style type="text/css">
	.st0{fill-rule:evenodd;clip-rule:evenodd;fill:#213164;}
	.st1{fill-rule:evenodd;clip-rule:evenodd;fill:#EE3232;}
</style>
<g>
	<g>
		<path class="st0" d="M31.5,42.4V17.1c-9.4,5.3-16.2,14.5-18.3,25.4H31.5z"/>
		<path class="st0" d="M42.3,42.4h43.8c-3.3-17.1-18.3-30.1-36.4-30.1c-2.5,0-4.9,0.3-7.4,0.7V42.4z"/>
		<path class="st0" d="M31.5,53.3H12.8C14,65.5,21.3,76,31.5,81.7V53.3z"/>
		<path class="st0" d="M42.3,53.3v32.5c2.4,0.5,4.9,0.7,7.4,0.7c19.1,0,34.9-14.6,36.9-33.2H42.3z"/>
	</g>
	<g transform="matrix(1,0,0,1,-275,2.26316)">
		<g>
			<g transform="matrix(0.986543,-0.163501,0.163501,0.986543,-33.9664,75.1457)">
				<path class="st1" d="M349.6-12.8c0.1-0.1,1.1-0.5,1.4-0.4c0.5,0.3,1.1,1,1.3,1.5c0.1,0.1-0.2,0.6-0.3,0.8
					c-0.1,0.3,0,0.6-0.1,0.9c-0.1,0.4-0.6,0.4-0.7,0.8c-0.1,0.1,0,0.4-0.1,0.6c-0.1,0.3-0.6,0.1-0.6,0.4c-0.2,0.4,0,1.2-0.3,1.6
					c-0.1,0.1,0.1,0.4,0,0.6s0.1,0.5,0.1,0.6c0.1,0.6,0.4,1.3,0.6,1.9c0,0.1,0.4,0.5,0.3,0.6c-0.1,0.1-0.5,0.6-0.7,0.6
					c-0.3,0.1-0.7-0.1-0.9,0.1c-0.1,0.1-0.3,0.5-0.4,0.6c-0.1,0.1-0.5-0.1-0.6-0.1c-0.1,0-0.6,0.1-0.6,0.1c-0.4-0.4-0.2-1.1-0.4-1.6
					c-0.3-0.9-0.5-1.6-0.9-2.4c-0.2-0.4-0.8-0.3-1.1-0.6c-0.1-0.1-0.4-0.3-0.5-0.4c-0.4-0.2-0.4-0.9-0.6-1.1C344.3-8,344-8,343.9-8
					c-0.1-0.1-0.2-0.3-0.3-0.4c-0.1-0.1-0.4-0.2-0.5-0.3s-0.4,0.1-0.5,0c-0.2-0.1-0.1-0.8-0.2-0.9c-0.1-0.1-0.6,0-0.7-0.1
					c-0.1-0.1,0.2-0.6,0.3-0.7c0.1-0.2,0.4-0.9,0.6-1c0.3-0.1,0.8-0.1,1.1-0.1c0.4-0.1,1,0,1.3-0.2c0.4-0.2,0.4-0.6,0.7-0.9
					c0.2-0.2,0.7-0.3,0.9-0.4c0.1-0.1,0.6,0.1,0.7,0.1c0.1,0.1,0.1,0.1,0.1,0.2c0.2,0.1,0.8-0.5,0.9-0.6c0.4-0.1,0.6,0.4,0.9,0.5
					C349.1-12.8,349.4-12.8,349.6-12.8"/>
			</g>
			<g transform="matrix(0.40793,-0.913013,-0.913013,-0.40793,654.124,954.86)">
				<path class="st1" d="M686.6,626.8c0.1-0.1,1.1-0.5,1.4-0.4c0.5,0.3,1.1,1,1.3,1.5c0.1,0.1-0.2,0.6-0.3,0.8
					c-0.1,0.3,0,0.6-0.1,0.9c-0.1,0.4-0.6,0.4-0.7,0.8c-0.1,0.1,0,0.4-0.1,0.6c-0.1,0.3-0.6,0.1-0.6,0.4c-0.2,0.4,0,1.2-0.3,1.6
					c-0.1,0.1,0.1,0.4,0,0.6s0.1,0.5,0.1,0.6c0.1,0.6,0.4,1.3,0.6,1.9c0,0.1,0.4,0.5,0.3,0.6c-0.1,0.1-0.5,0.6-0.7,0.6
					c-0.3,0.1-0.7-0.1-0.9,0.1c-0.1,0.1-0.3,0.5-0.4,0.6c-0.1,0.1-0.5-0.1-0.6-0.1c-0.1,0-0.6,0.1-0.6,0.1c-0.4-0.4-0.2-1.1-0.4-1.6
					c-0.3-0.9-0.5-1.6-0.9-2.4c-0.2-0.4-0.8-0.3-1.1-0.6c-0.1-0.1-0.4-0.3-0.5-0.4c-0.4-0.2-0.4-0.9-0.6-1.1
					c-0.1-0.1-0.4-0.1-0.6-0.2c-0.1-0.1-0.2-0.3-0.3-0.4c-0.1-0.1-0.4-0.2-0.5-0.3c-0.1-0.1-0.4,0.1-0.5,0c-0.2-0.1-0.1-0.8-0.2-0.9
					c-0.1-0.1-0.6,0-0.7-0.1s0.2-0.6,0.3-0.7c0.1-0.2,0.4-0.9,0.6-1c0.3-0.1,0.8-0.1,1.1-0.1c0.4-0.1,1,0,1.3-0.2
					c0.4-0.2,0.4-0.6,0.7-0.9c0.2-0.2,0.7-0.3,0.9-0.4c0.1-0.1,0.6,0.1,0.7,0.1c0.1,0.1,0.1,0.1,0.1,0.2c0.2,0.1,0.8-0.5,0.9-0.6
					c0.4-0.1,0.6,0.4,0.9,0.5C686.1,626.8,686.4,626.8,686.6,626.8"/>
			</g>
			<g transform="matrix(1,0,0,1,-12.4389,4)">
				<path class="st1" d="M294.7,29.8c-0.1,0.2,0.2,0.5,0.4,0.7c0.2,0.4,1.1,1.8,1.6,1.6c0.5-0.3,0.5-0.6,0.8-1
					c0.1-0.1,0.7,0.3,0.8,0.4c0.3,0.1,0.7-0.3,1.1-0.1c0.1,0.1,0.5,0.3,0.7,0.2c0.4-0.1,0.6-0.9,1.1-0.7c0.6,0.2,1.5,0.1,2.1,0.6
					c0.1,0.1,0.6,0.6,0.8,0.5c0.3-0.1,0.3-0.6,0.5-0.9c0.3-0.4,0.8-0.6,1.1-0.9c0.3-0.3-0.4-0.8-0.2-1.1c0.1-0.1,0.2-0.6,0.1-0.8
					c-0.1-0.1-0.3-0.1-0.4-0.1c-0.5-0.2-1.1,0-1.5-0.2c-0.5-0.2-0.6-0.8-0.9-1.1c-0.3-0.3-0.9-0.3-1.1-0.6c-0.2-0.4-0.5-0.9-0.6-1.3
					c-0.2-0.6,0.6-0.6,0.4-1.4c-0.3-0.8-1.8-1.9-2.6-1.6c-0.5,0.1-0.6,0.4-0.7,0.9c0,0.1,0.1,0.4,0,0.5c-0.3,0.3-0.6,0.1-0.9,0.2
					c-0.6,0.1-1.4,0.9-1.6,1.4c-0.1,0.1,0,0.7,0.1,0.8c0.1,0.1,0.9-0.1,0.7,0.3c-0.3,0.6-1.3,0.4-1.8,0.9c-0.2,0.2-0.3,0.7-0.1,0.9
					c0.2,0.2,0.5,0.1,0.6,0.4C295.2,28.3,294.7,29.8,294.7,29.8z"/>
			</g>
			<g transform="matrix(1,0,0,1,-3,0.971669)">
				<path class="st1" d="M303.7,73c0.1,0-0.9,0.6-1.1,0.8c-0.8,0.6-1.4,1.2-2,1.8c-0.1,0.1,0.2,0.9,0.3,0.9c0.1,0.2-0.1,0.4,0,0.6
					c0.4,0.7,1.3,2.7-0.1,3c-0.7,0.1-1.4-0.6-1.9-0.9c-1-0.5-2.4,0.1-3.4-0.4c-0.6-0.3,0-0.6-0.3-1c-0.1-0.3-0.4-0.4-0.5-0.7
					c-0.1-0.2,0.2-0.6,0.1-0.9c-0.1-0.3-0.5-0.6-0.6-0.9c-0.1-0.2-0.6-0.9-0.5-1.1c0.1-0.2,0.5-0.2,0.6-0.3c0.4-0.1,0.4-0.7,0.4-0.9
					c0.3-0.6-0.3-1.1-0.6-1.5c-0.2-0.2-0.3-0.6-0.4-0.9c-0.1-0.1-0.4-0.4-0.3-0.5c0.5-0.5,1.4-0.4,1.9-0.5c0.3-0.1,0.6-0.4,0.8-0.6
					c0.2-0.1,0.6-0.3,0.8-0.2c0.1,0.1,0.3,0.6,0.4,0.7c0.1,0.2,0.4,0.3,0.6,0.4c0.5,0.3,0.7,0.9,1.3,1.1c1.2,0.4,2-1.9,3.1-0.9
					c0.1,0.1,0.5,0,0.6,0.1c0.3,0.3,0.5,1.4,0.7,1.8c0.1,0.2,0.4,0.2,0.4,0.4c0.1,0.1,0,0.4-0.1,0.4C304,73.2,303.7,73,303.7,73z"/>
			</g>
			<g transform="matrix(1,0,0,1,-22.908,14)">
				<path class="st1" d="M384.4,41.5c-0.6-0.1-1.7-0.1-2.1-0.5c-0.1-0.1-0.5-0.4-0.6-0.4c-0.4,0-0.8,1.4-0.9,1.6
					c-0.1,0.1,0,0.5,0,0.6c0,0.1-0.1,0.5-0.1,0.6c0.1,0.1,0.4,0.4,0.6,0.4c0.2,0.1,0.4,0.4,0.7,0.5c0.5,0.1,1.4,0.3,1.7,0.6
					c0.1,0.1,0.4,0,0.5-0.1c0.3-0.1,0.7,0.3,0.8,0.4c0.3,0.5-0.4,0.7-0.2,1.1c0.3,0.5,0.8,1.1,1.1,1.4c0.3,0.3,0.2,0.8,0.5,1.1
					c0.1,0.1-0.1,0.7-0.1,0.8c-0.1,0.3,0.2,0.5,0.2,0.6c0.2,0.4,1.4,1.4,1.9,0.9c0.1-0.1,0.1-0.4,0.1-0.6c0.2-0.4,0.4-0.8,0.5-1.2
					c0.1-0.2,0.4-0.3,0.6-0.5c0.1-0.2,0-0.4,0.1-0.6c0.3-0.5,0.6-1.2,0.8-1.6c0.2-0.4,1-0.1,1.2-0.7c0.4-1-0.3-2.5,0.4-3.1
					c0.3-0.3-0.6-1-0.7-1.2c-0.4-1.1,0.1-2.1-1.2-2.7c-1.1-0.6-1.9,1.1-2.4,1.6c-0.2,0.2-0.7-0.3-0.9-0.1c-0.4,0.4-0.9,0.9-1.4,1.3"
					/>
			</g>
			<g transform="matrix(1,0,0,1,-16.1684,-1)">
				<path class="st1" d="M374.6,38.4c0.3,0.1,0.6-0.2,0.8-0.4c0.6-0.4,1.4-0.8,2.1-0.4c0.3,0.1,0.6,0.3,0.8,0.4
					c0.1,0.1,0.6,0,0.8,0.1c0.7,0.7,1.1,1.5,1.9,1.9c0,0,0.3-0.1,0.4-0.1c0.2,0,0.6,0.1,0.8,0.1c0.7-0.4,0.3-0.9,0.6-1.5
					c0.3-0.5,0.4-1.1,0.5-1.7c0-0.1-0.1-0.6,0-0.7c0.6-0.6-0.7-0.9-1.1-2c-0.1-0.3,0.1-1.5-0.2-1.9c-0.9-0.9-1.5-2.1-3-2.1
					c-0.4,0-0.9,0-1.1,0.2c-0.1,0.1-0.1,0.5-0.1,0.6c0,0.6,0.3,1.5-0.1,1.9c-0.4,0.4-1.2,0.1-1.6,0.6c-0.5,0.5-0.5,1.2-1.1,1.6
					c-0.5,0.3-0.7,0.5-1.1,0.9c-0.1,0.1-0.6,0-0.6,0.2c-0.1,0.4-0.1,1.1,0.2,1.4c0.1,0.1,0.3,0.4,0.4,0.6"/>
			</g>
			<g transform="matrix(0.270798,-0.962636,0.962636,0.270798,144.08,808.977)">
				<path class="st1" d="M815.2-43.4c0.3,0.1,0.6-0.2,0.8-0.4c0.6-0.4,1.4-0.8,2.1-0.4c0.3,0.1,0.6,0.3,0.8,0.4
					c0.1,0.1,0.6,0,0.8,0.1c0.7,0.7,1.1,1.5,1.9,1.9c0,0,0.3-0.1,0.4-0.1c0.2,0,0.6,0.1,0.8,0.1c0.7-0.4,0.3-0.9,0.6-1.5
					c0.3-0.5,0.4-1.1,0.5-1.7c0-0.1-0.1-0.6,0-0.7c0.6-0.6,0.4-1.9,0.1-2.4c-0.1-0.2,0-0.6-0.1-0.8c-0.3-0.6-0.9-0.2-1.2-0.5
					c-0.9-0.9-0.4-2.4-1.9-2.4c-0.4,0-2,0.3-2.2,0.6c-0.1,0.1-0.1,0.5-0.1,0.6c0,0.6,0.3,1.5-0.1,1.9c-0.4,0.4-1.2,0.1-1.6,0.6
					c-0.5,0.5-0.5,1.2-1.1,1.6c-0.5,0.3-0.7,0.5-1.1,0.9c-0.1,0.1-0.6,0-0.6,0.2c-0.1,0.4-0.1,1.1,0.2,1.4c0.1,0.1,0.3,0.4,0.4,0.6"
					/>
			</g>
			<g transform="matrix(1,0,0,1,-7,5.51356)">
				<path class="st1" d="M360.8,21.6c0.2-0.2,0.4-0.4,0.6-0.6c0.4-0.4,1.4,0.6,1.9-0.4c0.3-0.6,1.2-1.4,2.1-1
					c0.5,0.3,0.8,0.7,1.4,0.8c0.5,0.1,1.1-0.4,1.4-0.2c0.2,0.1,0.8,0.9,1.3,0.4c0.1-0.1,0.1-0.3,0.2-0.4c0.6-0.6-0.1-1.5-0.4-2
					c-0.1-0.4-0.1-0.9-0.3-1.2c-0.1-0.2-0.5-0.3-0.6-0.5c-0.2-0.4,0.1-1.1-0.1-1.5c-0.1-0.1-0.3-0.5-0.4-0.6
					c-0.4-0.1-0.8-0.2-1.1-0.5c-0.1-0.1-0.1-0.6-0.1-0.7c-0.1-0.4-0.6-0.6-0.8-0.8c-0.4-0.4-1.1-0.3-1.6-0.5
					c-0.3-0.1-0.7-0.9-0.9-1.1c-0.1-0.1-0.5,0.1-0.6,0.2c-0.6,0.3-1.3,0.7-1.6,1.3c-0.1,0.2,0.2,0.7,0.4,0.9
					c0.1,0.1-0.1,1.6-0.1,1.8c-0.2,0.4-0.8,0.7-0.9,1.2c-0.2,0.6,0.1,1.4-0.1,2c-0.3,0.6-1.3,0.9-1.6,1.4c-0.1,0.1,0,0.5,0.1,0.6
					c0.1,0.2,0.5,0.3,0.6,0.4c0.2,0.2,0.3,1,0.7,1"/>
			</g>
			<g transform="matrix(1,0,0,1,0,5.09822)">
				<path class="st1" d="M332.4-1.9c0.1-0.1-0.2,0.1-0.4,0.1c-0.2,0.1-0.5,0-0.7,0.1c-0.5,0.2-2,0.9-1.6,1.6
					c0.1,0.2,0.1,0.8,0.2,0.9c0.5,0.2,1.1,0.1,1.4,0.7c0.3,0.5,0,1.2,0.3,1.8c0.3,0.6,0.6,0.7,1,1.4c0.2,0.4,0.1,1.6-0.1,2.1
					c-0.1,0.2,0.1,0.6,0,0.8c-0.1,0.1-0.4,0.6-0.2,0.8c0.4,0.4,0.8,0.5,1.4,0.7c0.1,0,0.5,0.3,0.6,0.1c0.4-0.4,0.7-1.2,1.1-1.6
					c0.3-0.3,0-1.1,0.3-1.4c0.1-0.1,0.4-0.2,0.4-0.2c0.2-0.4,0.1-1,0.3-1.5c0.4-0.8,1.6-1.1,2.4-1.5c0.4-0.1,0.5,0.2,0.7,0.4
					c0.3,0.1,1.1-0.7,1.2-0.9c0.2-0.4,0.4-1.6,0-2c-0.3-0.3-1.1-0.1-1.3-0.5c-0.1-0.2-0.3-0.6-0.4-0.8c-0.2-0.2-0.6-0.1-0.7-0.4
					c-0.2-0.5-0.3-1.1-1.1-0.8c-0.4,0.1-1.3,0.9-1.6,0.7c-0.6-0.3-0.9-1.1-1.5-1.4c-0.3-0.1-0.9,0.4-0.9,0.6"/>
			</g>
			<g transform="matrix(1,0,0,1,5.49081,50)">
				<path class="st1" d="M284.3-4.1c0,0-0.6-0.3-1-0.6c-0.2-0.2-0.8,0-1-0.1c-0.5-0.2-0.9-0.2-1.4-0.4c-0.9-0.4-0.9-1.4-1.3-2.1
					c-0.1-0.4-0.4-0.4-0.6-0.7c-0.1-0.2-0.1-0.6-0.3-0.8c-0.5-0.5-1.1-0.3-1.7-0.6c-0.1-0.1-0.1,0.4-0.2,0.4
					c-0.1,0.3-0.6,1.1-0.7,1.3c-0.4,0.4-1.3,0.6-1.6,1.4c-0.2,0.5,0.4,1,0.1,1.4c-0.1,0.2-0.6,0.5-0.7,0.6c-0.2,0.2,0.4,1.6,0.4,1.8
					c0.1,0.4-0.4,0.8-0.1,1.3c0.1,0.3,0.5,0.4,0.6,0.6c0.4,0.7,0.4,1.6,1.3,2c0.2,0.1,0.6,0.5,0.9,0.3c0.2-0.2,0.9-1.4,1.1-1.5
					c0.2-0.1,1.4-0.3,1.5-0.4c0.1-0.4,0.1-0.9,0.3-1.1c0.1-0.1,1,0,1.1,0c0.7,0,1.6-0.6,2.3-0.6c0.1,0,0.9,0.5,1.1,0.4
					C284.9-1.9,285.7-4.1,284.3-4.1z"/>
			</g>
			<g transform="matrix(-0.618978,-0.785409,0.785409,-0.618978,754.366,923.896)">
				<path class="st1" d="M920.1,199.2c0,0-0.6-0.3-1-0.6c-0.2-0.2-0.8,0-1-0.1c-0.5-0.2-0.9-0.2-1.4-0.4c-0.9-0.4-0.9-1.4-1.3-2.1
					c-0.1-0.4-0.4-0.4-0.6-0.7c-0.1-0.2-0.1-0.6-0.3-0.8c-0.5-0.5-1.1-0.3-1.7-0.6c-0.1-0.1-0.1,0.4-0.2,0.4
					c-0.1,0.3-0.6,1.1-0.7,1.3c-0.4,0.4-1.3,0.6-1.6,1.4c-0.2,0.5,0.4,1,0.1,1.4c-0.1,0.2-0.6,0.5-0.7,0.6c-0.2,0.2,0.4,1.6,0.4,1.8
					c0.1,0.4-0.4,0.8-0.1,1.3c0.1,0.3,0.5,0.4,0.6,0.6c0.4,0.7,0.4,1.6,1.3,2c0.2,0.1,0.6,0.5,0.9,0.3c0.2-0.2,0.9-1.4,1.1-1.5
					c0.2-0.1,1.4-0.3,1.5-0.4c0.1-0.4,0.1-0.9,0.3-1.1c0.1-0.1,1,0,1.1,0c0.7,0,1.6-0.6,2.3-0.6c0.1,0,0.9,0.5,1.1,0.4
					C920.7,201.4,921.6,199.2,920.1,199.2z"/>
			</g>
			<g transform="matrix(1,0,0,1,-33,20)">
				<path class="st1" d="M316.8,36.9c0.1-0.1-0.2,0-0.4,0c-0.2-0.1-0.5-0.1-0.6,0.1c-0.3,0.8,0.1,1.7-0.3,2.4
					c-0.3,0.6,0.3,1.3,0,1.9c-0.2,0.4,0.1,0.9,0.1,1.3c0,0.4-0.3,0.5-0.2,0.9c0.1,0.3,0.4,1.1,0.6,1.4c0.1,0.1,0.1,0.7,0.3,0.9
					c0.1,0.1,0.5,0.1,0.6,0.1c0.1,0.1,0.2,0.4,0.4,0.4c0.1,0,0.2-0.5,0.3-0.6c0.1-0.1,0.6-0.3,0.8-0.4c1.1-0.4,2.3,0.2,3.2-0.4
					c0.6-0.4,0.3-1.4,0.6-1.8c0.1-0.1,0.6,0.1,0.8-0.1c0.4-0.1,1.8-0.7,1.9-0.9c0.1-0.1,0-0.9,0.1-1.1c0.1-0.1,0.7-1.3,0.5-1.5
					s-0.6-0.4-0.9-0.7c-0.2-0.2-0.9-0.6-1.3-0.4c-0.1,0.1-0.4,0.1-0.6,0.2c-0.6,0.3-0.7,1.1-1.5,0.8c-0.3-0.1-0.5-0.7-0.8-0.8
					c-0.4-0.1-0.9-0.4-1-0.8c-0.2-0.6-0.6-1.4-1.2-1.7C317.5,36.1,316.8,36.9,316.8,36.9z"/>
			</g>
			<g transform="matrix(1,0,0,1,-2,12.8107)">
				<path class="st1" d="M306.8,68.3c0,0,0.8-1.1,1-1.6c0.2-0.5,1.6-2.1,2.2-1.8c0.3,0.1,0.6,0.4,0.9,0.5c0.4,0.2,1,0.8,1.2,1.1
					c0.1,0.1,0.4,0.2,0.3,0.4c-0.2,0.4-0.6,0.8-0.9,1.2c-0.2,0.4-0.6,0.9-0.7,1.2l-0.1,0.6l0,0c0,0,0.1,1,0.4,1.6
					c0.3,0.5-0.1,1.4,0.1,1.9c0.1,0.4,0.6,1,0.4,1.4c-0.1,0.3-0.4,0.4-0.6,0.6c-0.3,0.1-0.4,0.5-0.6,0.7c-0.7,0.7-1.9-0.1-2.6-0.5
					c-0.5-0.2-0.9,0-1.4-0.3c-0.4-0.3,0.1-0.6,0-0.7s-0.6-0.8-0.8-0.9c-0.4-0.2-1.5,0.1-1.8-0.2c-0.1-0.1,0-0.5-0.1-0.6
					c-0.2-0.2-0.4-0.7-0.6-1c-0.2-0.4-1.1-0.5-1.4-0.8c0,0,0.1-0.4,0.1-0.5c0-0.9,0.3-0.7,0.6-1.4c0.4-0.8,1.4,0.2,1.9-0.1
					c0.4-0.2,0.6-0.6,1.1-0.8C305.9,68.3,306.5,68.6,306.8,68.3z"/>
			</g>
			<g transform="matrix(0.960146,-0.279497,0.279497,0.960146,-112.277,169.879)">
				<path class="st1" d="M452.1,38.8c0,0.1,0,0.9,0,1.2c0,0.6-0.2,2.3,0.1,2.6c1.4,1.4,1.6,2.7,3.3,3.5c0.1,0.1,0.1,0.6,0.1,0.8
					c-0.4,1.1-2.5,1.5-3.4,1.9c-0.1,0.1-1.5-0.2-1.5-0.3c0.1-1.1-1-0.5-1.4-0.7c-0.6-0.4-1.6,0.7-2,0.3c-0.3-0.3-1-0.2-1.4-0.4
					c-0.2-0.1-0.8-1.2-0.9-1.5c-0.4-0.7,0.6-2.3,1.2-2.6c0.3-0.2,0.7-0.1,1-0.4c0.4-0.4,1.1-1.6,1.3-2.3c0.1-0.3-0.3-1.2-0.1-1.4
					s0.6-0.2,0.9-0.4c0.1-0.1,0.1-0.4,0.3-0.6c0.1-0.1,1.2-0.2,1.6-0.6C451.5,37.7,452.1,38.8,452.1,38.8z"/>
			</g>
			<g transform="matrix(1,0,0,1,-14.9722,-20.5328)">
				<path class="st1" d="M315.8,43.6c-0.1-1.6-0.2-0.4-1-1.2c-0.4-0.4-0.8-1.2-1-1.7c-0.1-0.1,0.6-2.9,0.8-3.1
					c0.1-0.1,0.2-1,0.1-1.1c-0.2-0.2-1.7-1.1-1.9-1.2c-1-1-1.8-1.4-3.1-0.8c-0.5,0.3-1.5,2.3-2,2.8c-0.4,0.4-2.2,1.6-2.4,2.1
					c-0.4,1.1-1,2.1-0.6,2.6c0.2,0.4,1.4,0.5,1.7,0.4c0.5-0.1,0.1,0.8,0.4,1.1c0.1,0.1,0.8,0.4,1,0.3c0.8-0.3,1.5-0.6,2.3-1
					c1.3-0.6,2.6,0.9,3.5,1.8c0.4,0.4,1.6-0.9,1.6-1C315.2,43.7,315.8,43.9,315.8,43.6z"/>
			</g>
			<g transform="matrix(1,0,0,1,-1,-17.537)">
				<path class="st1" d="M320,99.7c0.1,0.1,0.4,0.6,0.4,0.8c0.2,0.7-0.9,2.6,0.1,3.1c1,0.5,2.5,1,3.3,1.7c0.7,0.7-0.4,1.9-0.6,2.6
					c-0.1,0.4,0.1,1.2-0.1,1.5c-0.3,0.3-1,0.4-1.4,0.6c-0.6,0.3-1.9-2.1-2.4-2.4c-0.3-0.1-1.4,1.1-1.7,0.8c-0.2-0.2-0.6-0.4-0.9-0.6
					c-0.1-0.1-0.7,0.2-0.9,0.1c-0.3-0.3-0.1-0.7-0.4-0.9c-0.9-0.4-1.4,0.1-1.9-0.8c-0.2-0.4,0.8-0.9,1-1.2c0.4-0.7,0.9-1.1,1.5-1.7
					c0.2-0.2,0.8-0.3,1.1-0.6c0.4-0.4-0.4-1-0.1-1.5c0.4-0.7,0.9-1.9,1.4-2.4c0.3-0.3,1.5,0.2,1.6,0.4
					C320.1,99.3,319.8,99.5,320,99.7z"/>
			</g>
			<g transform="matrix(1,0,0,1,10,-26.0907)">
				<path class="st1" d="M333.1,43.7c0,0-0.4-0.1-0.4-0.1c-0.1-0.1-0.1-0.2-0.1-0.4s0.3-0.3,0.4-0.5c0.2-0.4,0.5-0.7,0.6-1.1
					c0.1-0.1,0.1-0.5,0.1-0.6c-0.1-0.2-0.4-0.2-0.3-0.5c0.1-0.2,0.2-0.5,0.4-0.6c0.2-0.4,0.4-0.9,0.6-1.4c0.1-0.4-0.1-0.7-0.2-1
					c-0.1-0.2,0.1-0.5-0.1-0.7c-0.1-0.1-0.2-0.2-0.3-0.4c-0.3-0.6,0.2-1.1,0.6-1.5c0.1-0.1,1-0.5,1.2-0.4c0.1,0.1,0.2,0.4,0.3,0.6
					c0.2,0.3,0.7,0.4,0.9,0.4c0.6,0.2,1.1-0.6,1.8-0.4c0.3,0.1,0.8,0.4,0.9,0.6c0.1,0.2-0.1,0.6,0.1,0.7c0.3,0.3,0.9-0.1,1.2,0
					c0.4,0.2,0.4,0.9,0.7,1.2c0.1,0.1,0.6-0.1,0.9,0c0.2,0.2,0.2,0.4,0.2,0.6c0,0.2-0.1,0.5,0,0.7c0.1,0.3,0.3,1,0.1,1.2
					c-0.1,0.1,0.1,0.3,0,0.4s-0.4,0-0.5,0.1c-0.1,0.1-0.4,0.1-0.6,0.2c-0.3,0.1-0.6,0.2-0.9,0.4c-0.2,0.1-0.4,0.4-0.6,0.6
					c-0.4,0.1-0.8-0.1-1.1,0.1c-0.4,0.2-0.4,0.8-0.8,1c-0.2,0.1-0.4,0.3-0.5,0.4c-0.2,0.2-0.6,0.3-0.8,0.4c-0.4,0.2-0.8,0.6-1.1,0.9
					c-0.1,0.1-0.2,0.4-0.4,0.5c-0.2,0.1-0.6-0.3-0.9-0.2c-0.3,0.1-0.8,0.4-1,0.1"/>
			</g>
			<g transform="matrix(1,0,0,1,18,14)">
				<path class="st1" d="M346,29.6c-0.4-0.1-1.4,0.4-1.9,0.5c-0.4,0.1-0.8,0.3-1.1,0.4c-0.2,0.1-1-0.3-1.1,0
					c-0.2,0.4-0.2,0.9-0.4,1.3c-0.1,0.1-0.4,0.1-0.6,0.2c-0.3,0.3,0,0.8,0.1,1.1c0.1,0.2,0.3,0.5,0.4,0.6c0.1,0.1,0.5-0.1,0.6,0
					c0.5,0.5,0.8,0.4,1.4,0.1c0.3-0.1,0.7,0.1,1,0.1c0.4,0,1.1-0.1,1.4,0.2c0.1,0.1,0.1,0.4,0.3,0.5c0.1,0.1,0.6-0.1,0.7,0.1
					c0.1,0.1,0.3,0.2,0.4,0.3c0,0,0.4,0.5,0.3,0.6c-0.1,0.1-0.2,0.3-0.1,0.4c0.1,0.4,0.7,0.3,1,0.4c0.4,0.2,0.4,0.4,0.7,0.8
					c0.1,0.1,0.4,0.1,0.4,0c0.6-0.6,0.8-1.4,1.1-2.1c0.1-0.3,0.9-0.1,1-0.4c0.1-0.3-0.3-0.6-0.2-0.9c0.1-0.4,0.4-0.6,0.6-0.9
					c0.1-0.2-0.4-0.7-0.3-0.9c0.3-0.3-0.8-1.1-0.6-1.6c0.1-0.1-0.2-1.4-0.4-1.5c-0.1-0.1-0.2-0.2-0.3-0.2c-0.1,0-0.3,0.1-0.4,0.1
					c-0.2-0.1-0.2-0.3-0.4-0.5c-0.1-0.1-0.4-0.1-0.6-0.3c-0.7-0.4-1.1-1.2-1.9-1.6c-0.1,0-0.4,0.1-0.4,0.1c-0.4,0.4-0.9,1.3-1,1.7
					c-0.1,0.3,0.3,0.5,0.3,0.8C346.3,29.4,346,29.6,346,29.6"/>
			</g>
		</g>
		<g transform="matrix(1,0,0,1,-5.6252,-11.0613)">
			<g transform="matrix(0.939466,-0.342641,0.342641,0.939466,-83.8874,212.519)">
				<path class="st1" d="M436.6-12.9c0,0-0.1-0.7-0.1-0.9c0.1-0.3-0.1-1.1,0.1-1.3c0.1-0.1,0.4-0.6,0.2-0.9c-0.1-0.1-0.3,0-0.4-0.1
					c-0.2-0.2-0.1-0.9-0.2-1.1c-0.1-0.2-0.3-0.5-0.4-0.6c-0.1-0.1-0.5-0.2-0.6-0.4c-0.2-0.4,0.2-0.6,0.4-0.9c0.3-0.5,0.4-1.6,0-2
					c-0.1-0.1-0.6,0-0.9,0c-0.3,0-0.8-0.4-1.1-0.2c-0.5,0.3-0.4,1.1-0.9,1.4c-0.2,0.1-0.7,1.1-1.2,1.3c-0.2,0.1-0.5-0.1-0.8,0
					c-0.4,0.1-0.8,0.2-1.1,0.5c-0.2,0.2-0.2,0.8-0.3,1.1c0,0.1,0,0.4-0.1,0.4c-0.2,0.1-0.4-0.4-0.8-0.3c-0.4,0.1-0.6,0.3-0.8,0.6
					c-0.1,0.1-0.4,0-0.5,0.1c-0.1,0.1-0.4,0.2-0.4,0.3c-0.1,0.1,0.1,0.5,0.1,0.6c0.1,0.4,0.3,0.7,0.4,1c0.1,0.2,0.1,0.6,0.3,0.6
					c0.5,0.2,1.2-0.1,1.6,0.1c0.1,0.1,0.1,0.3,0.2,0.4c0.1,0.1,0.4,0,0.5,0.1c0.1,0.1,0.2,0.2,0.3,0.3c0.1,0.1,0.6-0.1,0.9,0.1
					c0.2,0.1,0.5,0.3,0.6,0.5c0.2,0.2,0.6,0.2,0.9,0.3c0.1,0.1-0.1,0.3,0.1,0.4c0.4,0.1,0.6-0.5,0.9-0.4c0.1,0.1,0,0.4,0.1,0.4
					c0.4,0.4,1,0.4,1.4,0.7l0.2-0.1c0.1,0,0.1,0,0.2,0c0.2-0.2,0.5-0.4,0.7-0.6c0.1-0.1,0.5-0.1,0.6-0.4
					C436.9-12.4,436.6-12.7,436.6-12.9z"/>
			</g>
			<g transform="matrix(0.999919,-0.0127286,0.0127286,0.999919,-24.5745,23.1055)">
				<path class="st1" d="M354,42.3c0.1,0,0.4,0.1,0.4,0.2c0.3,0.1,0.7-0.1,0.9,0.1s0.2,0.4,0.4,0.6c0.1,0.1,0,0.2,0,0.3
					c0.1,0.1,0.4,0.1,0.5,0.1c0.3,0.1,0.9,0.7,1.2,0.6c0.1-0.1,0.1-0.1,0.2-0.2c0.1-0.1,0.2-0.4,0.4-0.5c0.2-0.2,0.6-0.5,0.8-0.9
					c0.1-0.1-0.1-0.4-0.1-0.6c-0.1-0.4-0.8-0.6-0.9-0.8c0,0-0.1-0.3,0-0.4c0.1-0.1,0.7,0,0.8-0.1c0.1-0.2,0.2-1.1,0.1-1.2
					c-0.1-0.1-0.4,0.1-0.6,0c-0.1-0.1,0-0.3,0-0.4c-0.1-0.2,0.2-0.5,0.3-0.8c0.1-0.1,0.1-0.6,0.1-0.8c-0.1-0.4-0.8-0.9-1-1.1
					c-0.1-0.1,0.3-0.4,0.4-0.4c0.2-0.2,0.4-0.4,0.6-0.7c0.2-0.5,0.1-0.9-0.2-1.1c-0.1-0.1,0.2-0.4,0.3-0.6c0.2-0.3,0-0.4-0.2-0.6
					c-0.2-0.1-0.4,0-0.6,0s-0.5,0.1-0.7,0.2c-0.4,0.1-0.8-0.1-1.1,0.4c-0.1,0.2-0.4,0.4-0.6,0.6c-0.1,0.2,0.3,0.4,0.2,0.4
					c-0.2,0.2-0.5,0.1-0.8,0.2c-0.3,0.1-0.6,0.4-1,0.6c-0.2,0.1-0.5,0.1-0.7,0.2c-0.2,0.1-0.4,0.4-0.5,0.5c-0.2,0.2-0.6,0.3-0.8,0.6
					c-0.1,0.1-0.1,0.4-0.2,0.5c-0.1,0.1-0.4,0.1-0.6,0.1c-0.4,0.1-0.9,0.4-1.1,0.6s-0.6-0.1-0.7,0.2c-0.1,0.2,0.1,0.6,0.1,0.9
					s-0.4,0.7-0.2,0.9c0.2,0.3,0.8,0.4,1.1,0.4c0.2,0.1,0.8,0.1,1,0l0.3-0.1c0.1,0.1,0,0.4,0.1,0.5c0.2,0.3,0.8,0.3,1,0.4
					c0.1,0.1-0.1,0.3,0.1,0.4c0.1,0.1,0.5,0.1,0.6,0.2c0.1,0.1,0,0.3,0.1,0.4C353.5,42.5,353.9,42.3,354,42.3z"/>
			</g>
			<g transform="matrix(0.205009,-0.97876,-0.97876,-0.205009,659.008,946.985)">
				<path class="st1" d="M801.3,487.3c0,0-0.3-0.1-0.4-0.2c-0.2-0.1-0.5-0.4-0.9-0.2c-0.4,0.1-0.8,0.4-1.1,0.8
					c-0.1,0.1-0.6-0.1-0.7-0.1c-0.2-0.1-0.6,0.1-0.8,0s-0.6-0.3-0.8-0.2s-0.4,0.8-0.4,1s-0.2,0.7-0.1,0.9c0.1,0.1,0.4,0.1,0.6,0.2
					c0.1,0.1,0.2,0.3,0.4,0.4c0.3,0.1,0.8,0.3,0.9,0.6c0.1,0.1,0.1,0.2,0.2,0.3c0.1,0.2-0.1,0.5-0.1,0.6c0.1,0.4,0.4,0.6,0.6,0.9
					c0.1,0.1,0.4,0.1,0.5,0.2c0.5,0.5,1.1,1,1.8,1.3c0.4,0.2,0.7,0.8,1.3,0.5c0.1-0.1,0.2-0.1,0.4-0.2c0.1,0,0.3,0.1,0.4,0
					c0.2-0.2,0.3-0.6,0.5-0.8c0.1-0.1,0.4-0.1,0.4-0.1c0.1-0.2-0.1-0.9,0.1-1c0.3-0.3,0.5-0.4,0.6-0.9c0.1-0.4,0.1-0.7,0.2-1.1
					c0.1-0.2-0.1-0.4,0.1-0.6c0.1-0.1,0.3-0.1,0.4-0.2c0.4-0.4,0.6-0.9,0.9-1.3c0.1-0.1,0.6-0.4,0.6-0.4c-0.1-0.3-0.7-0.6-1-0.8
					c-0.2-0.1-0.4-0.4-0.6-0.6c-0.1-0.1-0.2,0.1-0.4,0.1c-0.2,0.1-0.9,0.4-1.1,0.3c-0.4-0.2-0.4-0.9-0.6-1.1
					c-0.2-0.1-0.4,0.1-0.4,0.3c-0.1,0.1-0.5,0.1-0.6,0.3C801.8,486.7,801.3,487.3,801.3,487.3z"/>
			</g>
			<g transform="matrix(0.978079,-0.208234,0.208234,0.978079,-130.313,-99.8029)">
				<path class="st1" d="M426.1,232.4c0,0-0.6,0.1-0.8,0.2c-0.1,0.1-0.1,0.4-0.3,0.5c-0.1,0.1-0.5-0.1-0.6,0.1
					c-0.4,0.4-0.4,1.3-0.4,1.9c0,0.9-0.4,1.4-0.7,2.1c-0.1,0.3,0.5,0.6,0.3,0.9c-0.4,0.6-0.7,1.1-0.9,1.8c-0.1,0.1-0.1,0.3-0.1,0.4
					c0.1,0.2,0.3,0.4,0.4,0.5c0.3,0.3,0.9,1.1,1.4,0.9c0.4-0.1,0.7-0.6,1.1-0.6c0.1-0.1,0.3-0.3,0.4-0.2c0.2,0.1,0.5,1,0.9,0.9
					c0.3-0.1,0.4-0.8,0.6-1.1c0.1-0.3,0.5-0.5,0.8-0.6c0.2-0.1,0.6,0.3,0.9,0.1s0.4-0.2,0.6-0.4c0.1-0.1,0.4,0,0.5-0.1
					c0.1-0.1,0.3-0.4,0.5-0.5c0.3-0.1,1.1,0.2,1.4,0c0.1-0.1,0.1-0.4,0.1-0.6c0.1-0.3,0.3-0.6,0.4-0.9c0.1-0.4-0.3-0.9-0.6-1
					c-0.6-0.1-1.3,0.2-1.6-0.5c-0.1-0.3-0.1-0.8-0.1-1.1c-0.1-0.4-0.6-0.8-0.9-0.9c0,0,0-0.1,0-0.2c-0.1-0.1-0.4,0-0.5-0.1
					c-0.1-0.1-0.6-0.4-0.6-0.4s-0.1-0.3-0.1-0.4c-0.1-0.1-0.5-0.1-0.6-0.2C426.7,233,426.5,232.4,426.1,232.4z"/>
			</g>
			<g transform="matrix(-0.980957,0.194226,-0.194226,-0.980957,1331.96,687.78)">
				<path class="st1" d="M868.4,798.3c0,0-0.3,0.4-0.5,0.4c-0.1,0.1-0.1,0.9-0.2,1.1c-0.1,0.1-0.6-0.3-0.8-0.1
					c-0.4,0.4-0.1,1.2-0.1,1.8c0,0.9-0.1,1.3-0.5,2.1c-0.1,0.3,0.2,0.5-0.1,0.9c-0.4,0.6-0.5,1.1-0.7,1.7c-0.1,0.1,0,0.1,0.1,0.3
					c0.1,0.2-0.1,0.6,0,0.7c0.2,0.2,0.6,0.4,0.9,0.5c0.2,0,0.3,0.5,0.4,0.4c0.4-0.1,0.7-0.6,1.1-0.6c0.1-0.1,0.3-0.3,0.4-0.2
					c0.2,0.1,0.8,0.4,1.1,0.2c0.3-0.1,0.1-0.2,0.3-0.4c0.1-0.3,0.5-0.5,0.8-0.6c0.2-0.1,0.6,0.3,0.9,0.1s0.4-0.2,0.6-0.4
					c0.1-0.1,0.4,0,0.5-0.1c0.1-0.1,0.3-0.4,0.5-0.5c0.3-0.1,1.1,0.2,1.4,0c0.1-0.1,0.1-0.4,0.1-0.6c0.1-0.3,0.2-0.9,0.3-1.2
					c0.1-0.4-0.6-0.6-1-0.8c-0.6-0.1-0.7,0-1.1-0.7c-0.1-0.3-0.1-0.4-0.2-0.8c-0.1-0.4-0.8-0.1-0.9-0.4c0,0-0.9-0.6-0.9-0.7
					c-0.1-0.1-0.1-0.5-0.1-0.6c-0.1-0.1-0.6-0.4-0.7-0.5C869.4,799.1,868.9,798.3,868.4,798.3z"/>
			</g>
		</g>
		<g>
			<g transform="matrix(0.934186,-0.356786,0.356786,0.934186,260.805,287.786)">
				<path class="st1" d="M148.2-183.7c0.1,0,0.1,0,0.1,0c0.3,0.1,0.5,0.1,0.4,0.4c0,0.1-0.1,0.1-0.1,0.3c0.1,0.1,0.1,0.3,0.2,0.4
					c0.3,0.1,0.5,0.4,0.5,0.9c0,0.1,0,0.2,0,0.3c0.2,0.3,0.7,0.1,0.9,0.3c0.4,0.8,0.6,1.4,1.2,1.9c0.4,0.4,1.1,0.9,1.2,1.4
					c0,0.2-0.4,0.4-0.4,0.6c0,0.1,0.2,0.4,0.2,0.5c0,0.1-0.1,0.3-0.2,0.4c0.1,0,0.2,0.1,0.2,0.1c0.1,0.1,0.4,0.3,0.4,0.4
					c0.1,0.4-0.2,0.8-0.3,1.1c-0.1,0.1,0,0.4-0.1,0.6c-0.1,0.1-0.1,0.1-0.1,0.3c-0.2,0.2-1.1,0-1.4,0c-0.1,0-0.4,0.1-0.5,0.1
					c-0.1,0-0.1-0.2-0.1-0.2c-0.3-0.1-0.4-0.4-0.6-0.4c-0.3-0.1-0.6,0.4-0.9,0.4c-0.1,0-0.4-0.1-0.5,0c-0.1,0.1-0.5,0.4-0.6,0.4
					s-0.1-0.2-0.2-0.3c-0.1-0.1-0.5,0.1-0.6,0.1s-0.1-0.3-0.2-0.3c-0.3,0-0.9,0.2-1.1,0c-0.1-0.1-0.1-0.4-0.3-0.4
					c0,0-0.2,0.1-0.2,0.2c-0.1,0.2-0.7,0.4-0.9,0.4c-0.3,0.1-0.9,0.3-1.1,0.1c-0.2-0.1-0.1-0.7-0.1-0.9c-0.1-0.2-0.4-0.5-0.4-0.8
					c0-0.4,0.4-0.2,0.6-0.5c0.1-0.3,0.4-0.7,0.7-1c0.1-0.1,0.4-0.1,0.4-0.4c0-0.1-0.1-0.4-0.1-0.5c0-0.3,0.3-0.5,0.4-0.7
					c0-0.1,0-0.1,0-0.2c0-0.1,0.1-0.1,0.2-0.2c0.1-0.1,0.1-0.2,0.1-0.4c0.1-0.1,0.1-0.2,0.3-0.3c0-0.3,0.1-0.6-0.1-0.8
					c-0.1-0.3-0.5-0.9-0.4-1.1c0.1-0.4,0.9,0,1.1-0.1c0.1-0.1,0.1-0.4,0.1-0.5c0.1-0.4,0-0.9,0.2-1.3c0.2-0.4,1.1-0.4,1.6-0.4
					C147.8-183.7,148-183.7,148.2-183.7z"/>
			</g>
			<g transform="matrix(0.327313,0.944916,-0.944916,0.327313,795.634,-578.408)">
				<path class="st1" d="M408.6,638.2c0,0,0.1,0.4,0,0.4c-0.1,0.3-0.7,0.2-0.8,0.5c-0.1,0.4-0.3,0.8-0.6,1.1
					c-0.1,0.1-0.3,0.3-0.2,0.4c0.2,0.4,0.9,0.9,1.2,1.1c0.5,0.3,1.1-0.7,1.7-0.6c0.5,0.1,0.5,0.6,0.9,0.9c0.1,0.1,0.6,0,0.7-0.1
					c0.1-0.1-0.1-0.3-0.1-0.4c0-0.2,0.1-0.7,0.2-0.9c0.1-0.1,0.4,0.1,0.4,0.1c0.1,0.1,0.4-0.1,0.5,0c0.1,0.1,0.7,0.2,0.9,0.1
					c0.4-0.2,0.6-0.6,0.9-0.8c0.2-0.1,0.4,0.5,0.6,0.6c0.4,0.2,1,0.1,1.4,0.2c0.1,0,0.4,0.2,0.4,0.1c0.4-0.4,0.4-1.4,0.6-2
					s-1-1.1-1.4-1.3c-0.1-0.1-0.4,0-0.6-0.2c-0.2-0.4,0.1-1.2-0.1-1.8c-0.1-0.4-0.7-0.5-1-0.6c-0.2-0.1-0.1-0.4-0.2-0.5
					c-0.1-0.1-0.3-0.1-0.4-0.2c-0.3-0.1-0.5-0.6-0.7-0.8c-0.4-0.4-0.1-0.9-0.6-1.2c-0.3-0.2-0.8-0.1-1.2-0.1c-0.1,0-0.3-0.1-0.4-0.1
					c-0.2,0.2-0.3,0.6-0.5,0.8c-0.1,0.1-0.5,0.1-0.7,0.3s-0.3,0.5-0.4,0.6c-0.2,0.4-0.6,0.7-0.7,1.2c-0.1,0.4,0.4,0.4,0.3,0.6
					c-0.1,0.4-0.6,0.8-0.4,1.3C408.6,637.5,408.8,637.9,408.6,638.2z"/>
			</g>
			<g transform="matrix(0.983021,-0.183493,0.183493,0.983021,33.4592,103.966)">
				<path class="st1" d="M315.7-16c-0.1,0,0.4-0.1,0.4,0c0.3,0.1,0.6,0.1,0.8,0.1c0.1,0,0.2-0.3,0.2-0.4c0.1-0.1,0.2,0,0.3,0.1
					c0.1,0.1,0.4,0.1,0.6,0.3c0.1,0.1,0.3,0,0.4,0c0.4,0.2,1,0.1,1.4-0.1c0.3-0.1,0.7,0.3,0.9,0.1c0.1-0.1,0.6-0.3,0.6-0.4
					c0.1-0.1,0.4,0,0.4,0c0.5,0,0.7,0.1,1.1,0.4c0.1,0.1,0.3,0,0.4,0c0.2,0,1.1,0.1,1.2,0c0.3-0.3,0.1-0.6,0.2-0.9
					c0.1-0.2,0.6-0.9,0.4-1.1c-0.1-0.1-0.3-0.1-0.4-0.1c-0.4-0.1-0.6-0.4-0.9-0.6c-0.1-0.1-0.4-0.1-0.4-0.2
					c-0.1-0.1,0.2-0.3,0.2-0.4c0.1-0.2,0.2-0.1,0.4-0.2c0.1-0.1,0.1-0.5,0-0.6c-0.4-0.7-1.1,0.3-1.4-0.2c-0.3-0.4-0.4-0.9-0.6-1.4
					c-0.1-0.1-0.4-0.1-0.5-0.2c-0.2-0.1-0.1-0.2-0.3-0.4c-0.1-0.1-0.5-0.2-0.6-0.4c-0.1-0.2,0.5-0.3,0.4-0.6
					c-0.1-0.4-0.6-0.7-0.8-1.1c-0.1-0.2-0.1-0.4-0.2-0.5c-0.1-0.1-0.4,0-0.5,0c-0.4,0.1-0.7,0.1-1.1,0.1c-0.1,0-0.4,0-0.4,0.1
					c-0.3,0.6-0.2,1.4-0.5,2c-0.1,0.1,0.5,0.4,0.4,0.6c-0.1,0.2-0.4,0.3-0.6,0.3c-0.1,0-0.4,0-0.5,0.1c-0.1,0.1,0,0.4-0.1,0.6
					c-0.2,0.2-0.6,0.4-0.7,0.7c-0.1,0.2,0.1,0.4,0,0.6c-0.1,0.1-0.3,0.1-0.4,0.3c-0.1,0.2-0.1,0.6-0.3,0.7c-0.1,0.1-0.5,0.3-0.6,0.6
					c-0.2,0.4,0.1,0.7,0.3,1.1c0.1,0.1-0.1,0.4,0.1,0.5C315.3-16.1,315.7-16,315.7-16z"/>
			</g>
			<g transform="matrix(0.985737,-0.168295,0.168295,0.985737,-249.265,-134.255)">
				<path class="st1" d="M509.1,268.7c0.1-0.1,0,0.6,0.1,0.8c0.3,0.3,1.3-0.1,1.6-0.2c0.6-0.1,1.1,0.1,1.7,0
					c0.2-0.1,0.4-0.2,0.6-0.3c0.4-0.1,1-0.1,1.1-0.6c0.1-0.1-0.1-0.4-0.1-0.6c-0.1-0.2,0-0.4-0.1-0.6c-0.4-0.5-1.3-0.3-1.6-0.9
					c-0.1-0.1,0-0.4,0-0.6c0-0.4,0.1-1.1-0.1-1.5c-0.1-0.5-0.8-0.5-1.1-0.9c-0.3-0.3-0.3-0.6-0.4-1c-0.1-0.1,0.1-0.6-0.1-0.7
					c-0.5-0.4-1.3-0.7-1.6-1.1c-0.2-0.2-0.8-0.1-0.9-0.2c-0.1-0.1-0.5-0.6-0.6-0.4c-0.1,0.1-0.4,0.2-0.4,0.4c-0.2,0.4,0,0.9-0.1,1.3
					c-0.1,0.3-0.6,0.6-0.8,0.8c-0.4,0.4,0.6,1.2,0.4,1.6c-0.1,0.2-0.3,0.4-0.4,0.6c-0.1,0.1-0.4-0.1-0.4,0.1
					c-0.3,0.6-0.1,1.2-0.4,1.7c-0.1,0.1-0.6,0.3-0.8,0.4c-0.3,0.1-0.4,0.6-0.5,0.9c-0.1,0.3-0.5,0.4-0.7,0.6
					c-0.1,0.1,0.6,0.7,0.8,0.8c0.3,0.1,0.2,0.7,0.5,0.9c0.6,0.4,0.9-0.2,1.5-0.4c0.1-0.1,0.4-0.2,0.5-0.1c0.3,0.1,0.9,1.1,1.3,0.9
					s0.6-1.1,0.7-1.4C508.8,268.8,509,268.8,509.1,268.7z"/>
			</g>
			<g transform="matrix(1,0,0,1,-36.9585,0)">
				<path class="st1" d="M340.8,25c-0.3,0.2-0.9,0.8-0.9,0.8c-0.1,0.1,0.1,0.3,0.1,0.4c0.1,0.4,0.1,1.2,0.5,1.4
					c0.6,0.3,1.4-0.1,2,0.2c0.3,0.1,0.5,1,0.6,1.3c0.1,0.3,0.3,0.1,0.4,0.2c0.1,0.1,0.1,0.4,0.3,0.4c0.1,0.1,0.5,0,0.6,0
					c0.5-0.1,1.1-0.2,1.5-0.4c0.1-0.1,0.4,0.1,0.4,0.1c0.4,0.1,1.1,0.4,1.4,0.6c0.1,0.1,0.1,0.2,0.3,0.3c0.2,0.1,0.4-0.4,0.5-0.5
					c0.1-0.3,0.6-0.3,0.7-0.4c0.1-0.1,0.2-0.4,0.4-0.4c0.2-0.2,0.1-0.8-0.1-0.9c0,0-0.1-0.4,0-0.4c0.5-0.5-0.1-0.6-0.3-1.1
					c-0.1-0.4,0.4-0.6,0.2-1c-0.1-0.6-0.6-1-0.9-1.5c-0.2-0.7,0.4-1.3,0.4-2c0-0.1,0.1-0.2,0.1-0.4c-0.1-0.4-1.1-0.5-1.5-0.6
					c-0.1-0.1-0.4-0.3-0.4-0.2c-0.3,0.3-0.4,0.8-0.8,1c-0.1,0.1-1.1-0.3-1.3-0.4c-0.1,0-0.4-0.2-0.4-0.1c-0.2,0.4,0,1.2,0.1,1.7
					c0.1,0.1,0.3,0.5,0.2,0.6s-0.3,0.1-0.4,0.1c-0.4-0.1-0.9-0.1-1.1-0.2c-0.1,0-0.4-0.1-0.4-0.1c-0.3,0.3-0.4,0.6-0.4,0.9
					c0,0.1,0,0.4,0,0.5c-0.3,0.3-0.9-0.4-1.3-0.3C341.1,24.6,341,24.9,340.8,25z"/>
			</g>
			<g transform="matrix(-0.919947,-0.392043,0.392043,-0.919947,796.652,886.195)">
				<path class="st1" d="M776.5,563.5c0,0,0.1,0.2,0,0.4c-0.1,0.4-0.4,0.6-0.6,0.9c-0.1,0.2-0.3,0.2-0.2,0.5
					c0.1,0.3,0.6,0.8,0.7,0.9c0.1,0.1,0.2,0,0.2,0.1c0,0,0,0.3,0,0.4c-0.1,0.2-0.3,0-0.5,0.1c-0.1,0.1-0.2,0.2-0.3,0.4
					c-0.1,0.1,0,0.6,0,0.9c0,0.1,0.1,0.5,0,0.6c0,0.1-0.2,0.4-0.1,0.4c0.2,0.2,0.5,0.4,0.8,0.4c0.4,0.1,0.9,0.7,1.4,0.4
					c0.6-0.4,0.8-1.5,1.1-1.9c0.1-0.1,0.7,0.1,0.9,0.1c0.3,0.1,0.7-0.1,0.9-0.2c0.4-0.1,0.7-0.3,0.9-0.6c0.1-0.1,0.2-0.4,0.5-0.6
					c0.2-0.1,0.6,0.1,0.8,0c0.1-0.1,0.3-0.4,0.4-0.5c0.2-0.2,0.6-0.2,0.9-0.4c0.1-0.1,0.2-0.5,0.3-0.6c0.1-0.3-0.3-0.6-0.1-0.9
					c0.1-0.1,0.3-0.6,0.1-0.8c-0.1-0.1-0.2-0.1-0.3-0.1c-0.1-0.1-0.1-0.6-0.1-0.8c-0.1-0.3-0.6-0.5-0.9-0.6s-0.4-0.4-0.5-0.5
					c-0.3-0.2-0.5-0.4-0.8-0.6c-0.3-0.1-0.4,0.4-0.6,0.3c-0.3-0.1-0.8-0.3-1.1-0.4c-0.4-0.2-0.9,0.1-1.3-0.1
					c-0.3-0.1-0.4-0.6-0.6-0.8c-0.3-0.3-0.4-0.4-0.8-0.5c-0.1-0.1-0.3-0.6-0.4-0.6c-0.6,0.3-1,0.7-1.4,1.1c-0.1,0.1-0.4,0.4-0.4,0.6
					c0.1,0.4,0.4,0.7,0.6,1.1c0.1,0.1,0.3,0.4,0.2,0.6c-0.1,0.1-0.9,0-1,0.1c-0.1,0.1-0.3,0.6-0.1,0.7c0.1,0.1,0.1,0.2,0.3,0.3
					C775.8,563.6,776.5,563.5,776.5,563.5z"/>
			</g>
			<g transform="matrix(0.981725,0.190307,-0.190307,0.981725,114.427,-89.7039)">
				<path class="st1" d="M226,120.5c0.1,0-0.2,0-0.3,0c-0.1,0-0.5,0.1-0.6,0.1c-0.1,0.1,0.1,0.4,0,0.5c-0.1,0.1-0.9,0.6-0.8,0.8
					c0.2,0.5,0.9,1.1,1.3,1.3c0.4,0.2,0.8-0.4,1.1-0.2c0.5,0.1,0.4,0.6,0.6,0.9c0.1,0.1,0.4,0,0.5,0.1c0.1,0,0.4,0.1,0.4,0
					c0.1-0.1,0.1-0.7,0-0.9c-0.1-0.4,0.3-0.9,0.6-1c0.4-0.2,0.2,0.4,0.3,0.4c0.1,0.1,0.4,0,0.6,0.1c0.2,0.2,0.4,0.6,0.6,0.7
					c0.3,0.1,0.9-0.5,0.9-0.7c0-0.1,0.2-0.1,0.2-0.1c0.1,0.1,0.3,0.4,0.5,0.6c0.4,0.2,0.7,0.1,1,0.2c0.1,0.1,0.3,0.1,0.5,0.2
					c0.2,0.1,0.8,0.3,0.9-0.1c0.1-0.2-0.1-0.5,0-0.6c0.1-0.4,0.4-1.1,0.1-1.4c-0.5-0.5-1.1-0.8-1.3-1.4c-0.1-0.4,0.5-0.9,0.4-1.3
					c-0.1-0.2-0.4-0.6-0.4-0.8c-0.1-0.3,0.2-0.6,0.1-0.9c-0.2-0.4-0.2-0.9-0.5-1.4c-0.1-0.3,0.1-0.8-0.1-1c-0.2-0.2-0.7-0.3-1.1-0.4
					c-0.4-0.1-0.6,0.4-0.9,0.5c-0.1,0.1-0.4-0.1-0.6,0c-0.4,0.1-1.1,0.4-1.3,0.6c-0.2,0.2-0.6-0.1-0.9-0.1c-0.1,0.1-0.4,0.3-0.4,0.4
					c-0.4,0.6,0,1.4-0.3,2.1c-0.1,0.1-0.4,0.2-0.6,0.4c-0.3,0.6-0.8,0.9-0.8,1.6c0,0.1,0.1,0.4,0,0.5
					C226.1,120.4,226,120.5,226,120.5z"/>
			</g>
			<g transform="matrix(0.978717,0.205216,-0.205216,0.978717,51.5026,-97.9996)">
				<path class="st1" d="M324.5,90c-0.3-0.1-0.4-0.1-0.6-0.2c-0.1-0.1-0.2-0.3-0.3-0.2c-0.5,0.2-1.1,0.4-1.6,0.6
					c-0.4,0.1-0.4,0.6-0.7,0.7c-0.1,0.1-0.4,0-0.5,0.1c-0.2,0.1-0.8,0.5-0.9,0.7c-0.1,0.3,0.3,0.6,0.2,0.9c-0.1,0.3-0.4,0.4-0.6,0.7
					c-0.4,0.7,0.2,1.2,0.7,1.6c0.2,0.2,0.9-0.1,1.2,0.1c0.4,0.3,0.4,0.9,0.9,1.2c0.4,0.2,0.9-0.1,1.3,0.3c0.1,0.1,0.4,0.7,0.3,0.8
					c-0.1,0.1-0.1,0.1-0.1,0.3c0.1,0.2,0.3,0.3,0.4,0.5c0.2,0.4,0.7,1.1,1.2,0.9c0.3-0.1,0.5-0.4,0.8-0.5c0.1-0.1,0.4,0,0.4-0.1
					c0.1-0.3,0.1-1.1,0.1-1.4c0-0.1,0-0.4,0.1-0.6c0.1-0.1,0.1-0.1,0.2-0.2c0.3-0.1,0.8,0.6,1-0.1c0.1-0.1,0.1-0.2,0.1-0.4
					c0.1-0.5-0.4-0.5-0.6-0.7c-0.1-0.1-0.1-0.3-0.2-0.4c0-0.1-0.3-0.4-0.1-0.4c0.1-0.1,0.4-0.3,0.6-0.5c0.1-0.1,0.2,0.1,0.3,0
					c0.1-0.1,0.1-0.2,0.1-0.3c0.1-0.2,0-0.8-0.1-0.9c-0.1-0.1-0.2-0.4-0.2-0.4c0.1-0.1,0.3-0.4,0.5-0.5c0.1-0.1,0-0.5,0.1-0.6
					c0.1-0.1,0.4-0.4,0.3-0.6c-0.2-0.4-0.9-1.1-1.2-1.3c-0.1,0-0.3,0.2-0.4,0.2c-0.4,0.1-0.8,0-1,0.4c-0.1,0.1-0.1,0.5-0.2,0.6
					C325.6,90.1,324.8,90,324.5,90"/>
			</g>
			<g transform="matrix(0.981471,-0.191608,0.191608,0.981471,-31.9906,192.139)">
				<path class="st1" d="M407.7-76.4c0,0-0.3,0.3-0.4,0.5c-0.2,0.4,0.1,0.9-0.4,1c-0.2,0.1-0.3-0.1-0.4-0.2
					c-0.3-0.1-0.6-0.4-0.9-0.5c-0.6-0.2-0.9,0.5-1.4,0.6c-0.8,0.3-1.6-0.4-2.2,0.2c-0.1,0.1-0.1,0.5-0.1,0.7
					c-0.1,0.2-0.4,1.1-0.1,1.4c0.1,0.1,0.4,0.1,0.4,0.2c0.3,0.3,0.6,0.6,0.9,1c0.1,0.1,0.4,0,0.5,0.1c0.3,0.3,0.4,1,0.6,1.4
					c0.4,0.7,1.5,0.9,2.1,1.2c0.4,0.2,0.1,1,0.6,1.1c0.1,0.1,0.4,0.1,0.6,0.2c0.1,0,0.3-0.1,0.4,0s0.1,0.6,0.5,0.4
					c0.3-0.1,1.2-0.1,1.4-0.5c0.1-0.3-0.1-0.6-0.1-0.8c-0.1-0.3-0.4-1.2-0.2-1.5c0.1-0.1,0.1-0.3,0.2-0.3c0.1-0.1,0.5,0.1,0.7,0.1
					c0.1-0.1,0.3-0.8,0.2-0.9c-0.2-0.4-0.7-0.5-0.9-0.9c-0.1-0.5,0.2-0.6,0.4-1c0.1-0.1-0.2-0.7-0.3-0.9s0.1-0.5-0.1-0.6
					c-0.1-0.1-0.1-0.3-0.1-0.3s0.2,0.2,0.4,0.4c0.1,0.1,0.2-0.2,0.2-0.3c0.1-0.2-0.1-0.5,0-0.7c0.1-0.1,0.2-0.5,0.2-0.6
					c-0.1-0.1-0.4-0.2-0.4-0.4c-0.2-0.4-0.8-0.9-1.3-0.8C408.2-77,408.1-76.6,407.7-76.4z"/>
			</g>
		</g>
		<g transform="matrix(1,0,0,1,275,-2.26316)">
			<path class="st1" d="M43.6,91c-0.1,0.1-0.2,0.4-0.2,0.5c0,0.1,0,0.4-0.1,0.5c-0.1,0.1-0.6,0-0.8,0.1c-0.2,0.2-0.8,0.7-1.1,0.6
				c-0.2-0.1-0.2-0.1-0.3-0.3c-0.1-0.1-0.3,0.1-0.4,0c-0.1,0-0.3-0.4-0.4-0.5c-0.4-0.4-1.4-1.6-1.2-2.3c0.1-0.1,0.4-0.3,0.5-0.4
				c0.3-0.4,0.7-0.8,1-1.2c0.1-0.2,0.3-0.5,0.5-0.7c0.2-0.1,0.6,0.1,0.9,0.4c0.1,0,0.1-0.1,0.1-0.1c0.1-0.1,0.2-0.2,0.4-0.2
				c0.5-0.1,1.4,0.8,1.7,1.1c0.1,0.1,0.3,0.2,0.4,0.2c0.2-0.1,0.4-0.2,0.6,0c0.1,0.1,0.3,0.5,0.4,0.6c0.4,0.4,0.6,1,1,1.4
				c0.2,0.2,0.4,0.4,0.6,0.7c0.1,0.4,0,0.9-0.2,1H47c0,0.1-0.1,0.6-0.2,0.4c-0.1-0.1-0.3-0.4-0.4-0.3c-0.1,0.2-0.4,0.3-0.5,0.4
				c-0.1,0.1-0.4,0.6-0.6,0.4c-0.1-0.1-0.3-0.3-0.4-0.4c-0.1-0.1-0.3-0.1-0.4-0.2c-0.1-0.2-0.1-0.6-0.3-0.9
				C44,91.7,43.8,91.4,43.6,91z M55.8,88.2C55.8,88.2,55.8,88.2,55.8,88.2c-0.1-0.1-0.4-0.3-0.4-0.4c0.1-0.1,0.1-0.1,0.2-0.1
				c0.1-0.1,0-0.1,0-0.1c0,0,0.2-0.1,0.3-0.2c0.2-0.2,1-0.8,1.4-0.8c0.1,0,0.1,0.1,0.2,0.1c0.2,0.1,0.4,0.2,0.6,0.2
				c0.1,0,0.3,0.1,0.4,0.1c0.1,0.1-0.2,0.4-0.4,0.5h0.1c-0.1,0.1-0.2,0.3-0.3,0.3c-0.1,0-0.2-0.1-0.3,0c-0.1,0.1-0.4,0.2-0.6,0.4
				c-0.1,0.1-0.1,0.1-0.2,0.1c0.1,0,0.3-0.1,0.4-0.1c0.3-0.1,0.6-0.1,0.8-0.1c0.1-0.3,0.3-0.5,0.6-0.4c0.1,0.1,0.4,0.3,0.6,0.4
				c0.5,0.2,1,0.6,1.5,0.8c0.2,0.1,0.6,0.2,0.8,0.4c0.3,0.2,0.4,0.9,0.3,1h0.1c0,0.1,0.2,0.6,0,0.5c-0.1,0-0.4-0.3-0.5-0.1
				c0,0.3-0.2,0.4-0.3,0.6C61,91.5,61,91.9,60.8,92c-0.1,0-0.4-0.1-0.5-0.1c-0.1,0-0.3,0-0.4-0.1c-0.2-0.1-0.4-0.6-0.6-0.7
				c-0.3-0.2-1-0.7-1.1-1c0,0-0.1,0.1-0.1,0.1c0,0.4-0.2,0.7-0.3,1.1c-0.1,0.4-0.1,1-0.4,1.3c-0.1,0.1-0.4,0.1-0.6,0.2
				c-0.1,0.1-0.3,0.3-0.4,0.3c-0.2,0-0.4-0.4-0.7-0.4s-1.1-0.1-1.2-0.4c-0.1-0.2,0-0.3,0-0.4c0-0.1-0.2-0.1-0.3-0.2
				c0-0.1,0.1-0.5,0.1-0.6c0-0.6,0.1-2.2,0.8-2.5c0.1-0.1,0.4,0.1,0.6,0C55.7,88.2,55.7,88.2,55.8,88.2z M29.3,85.4
				c0-0.1,0.1-0.2,0-0.3c-0.1-0.1-0.4-0.6-0.3-0.7c0.1-0.1,0.1-0.1,0.3-0.1c0.1-0.1,0-0.1,0.1-0.2c0,0,0.4-0.1,0.4-0.1
				c0.4-0.2,1.5-0.8,1.9-0.6c0.1,0.1,0.1,0.2,0.3,0.3c0.3,0.2,0.4,0.5,0.8,0.6c0.1,0.1,0.4,0.2,0.4,0.4c0.1,0.1-0.4,0.5-0.6,0.6h0.1
				c-0.1,0.1-0.3,0.4-0.4,0.3c-0.1,0-0.2-0.2-0.4-0.1c-0.2,0.1-0.5,0.1-0.8,0.2c-0.3,0.1-0.7,0.4-1,0.3c0,0,0,0-0.1,0
				c0,0.1,0.1,0.1,0.1,0.1c0,0.1-0.1,0.4-0.1,0.6c0,0.1,0,0.3,0,0.4c0.1-0.1,0.4-0.1,0.4-0.2c0.4-0.4,0.9-0.5,1.3-0.9
				c0.2-0.2,0.4-0.4,0.7-0.5c0.3-0.1,0.7,0.5,0.8,0.9v-0.1c0.1,0.1,0.4,0.4,0.3,0.6c-0.1,0.1-0.4,0.3-0.3,0.5
				c0.1,0.3,0.1,0.7,0.2,1.1c0.1,0.4,0.4,0.9,0.2,1.3c-0.1,0.1-0.3,0.3-0.4,0.5c-0.1,0.1-0.1,0.4-0.2,0.4c-0.2,0.1-0.6-0.2-0.8-0.1
				c-0.3,0.1-1,0.4-1.3,0.2c-0.1-0.1-0.1-0.2-0.2-0.4c-0.1-0.1-0.3,0-0.4-0.1c-0.1-0.1-0.1-0.5-0.1-0.6c-0.1-0.2-0.3-0.6-0.4-1l0,0
				c-0.1,0.3-0.7,0.3-0.9,0.1l0.1,0.1c-0.1,0-0.5,0.1-0.6-0.1c0-0.1,0-0.4-0.1-0.4c-0.3,0-0.5-0.2-0.8-0.4s-0.8-0.1-0.9-0.4
				c-0.1-0.1,0-0.4-0.1-0.5c-0.1-0.1-0.1-0.3-0.1-0.4c0-0.2,0.4-0.3,0.4-0.6c0.1-0.2,0.2-0.9,0.5-1c0.1-0.1,0.2,0,0.4,0
				c0.1,0,0.1-0.2,0.2-0.2c0.1,0,0.4,0.1,0.4,0.1C28.5,85.2,28.9,85.3,29.3,85.4z M43.6,90.2c-0.1,0-0.2,0.1-0.3,0.1
				c0.1,0.1,0.1,0.1,0.1,0.2C43.5,90.3,43.6,90.4,43.6,90.2L43.6,90.2z M69,85.2c-0.1-0.1-0.1-0.2-0.2-0.2c-0.1,0-0.6,0-0.7-0.2
				c-0.1-0.1,0-0.2,0-0.4c0-0.1-0.1-0.1-0.1-0.1c0-0.1,0.1-0.4,0.1-0.4c0.1-0.4,0.3-1.6,0.7-1.9c0.1-0.1,0.3,0,0.4,0
				c0.4-0.1,0.6-0.1,1-0.2c0.1-0.1,0.4-0.1,0.6-0.1c0.2,0,0.2,0.6,0.1,0.8l0.1-0.1c0,0.1,0.1,0.4-0.1,0.5c-0.1,0.1-0.3,0.1-0.4,0.2
				c0,0.3-0.2,0.5-0.3,0.8c-0.1,0.3-0.1,0.8-0.4,0.9c0,0,0,0-0.1,0c0.1,0,0.1,0,0.1,0.1c0.1,0.1,0.2,0.3,0.4,0.4l0.1,0.1
				c0.1-0.1,0.1-0.3,0.1-0.4c0-0.5,0.2-1,0.2-1.5c0-0.3,0-0.6,0.1-0.8c0.1-0.3,0.8-0.4,1-0.2l-0.1-0.1c0.1,0,0.6-0.1,0.6,0.1
				c0,0.1-0.1,0.5,0.1,0.5c0.3,0,0.6,0.2,0.8,0.4c0.3,0.1,0.9,0.1,1,0.4c0.1,0.1,0,0.4,0.1,0.6c0.1,0.1,0.1,0.3,0.1,0.4
				c0,0.2-0.4,0.4-0.6,0.6c-0.1,0.3-0.3,1-0.6,1.1c-0.1,0.1-0.2,0-0.4,0c-0.1,0-0.2,0.2-0.3,0.2c-0.1,0-0.4-0.1-0.4-0.1
				c-0.1,0-0.4-0.1-0.6-0.1c0.1,0.1,0.1,0.1,0.2,0.2c0.1,0.2-0.1,0.7-0.4,0.9h0.1c-0.1,0.1-0.2,0.5-0.4,0.4
				c-0.1-0.1-0.3-0.3-0.4-0.1c-0.2,0.2-0.5,0.3-0.7,0.4c-0.2,0.1-0.6,0.5-0.9,0.5c-0.1,0-0.3-0.1-0.4-0.2c-0.1,0-0.3,0-0.4-0.1
				c-0.1-0.1,0-0.5-0.1-0.7c-0.1-0.2-0.6-0.7-0.5-1c0.1-0.1,0.1-0.1,0.2-0.3c0.1-0.1-0.1-0.2,0-0.3c0-0.1,0.3-0.2,0.4-0.3
				C68.4,85.7,68.7,85.4,69,85.2z M18,77.4c-0.3,0.1-0.9,0.4-1.1,0.1c-0.1-0.1-0.1-0.2-0.2-0.4c-0.1-0.1-0.3-0.1-0.4-0.1
				c-0.1-0.1-0.1-0.5-0.1-0.6c-0.2-0.5-0.7-2.1-0.3-2.6c0.1-0.1,0.4-0.1,0.6-0.2c0.4-0.3,0.9-0.4,1.3-0.8c0.2-0.1,0.4-0.4,0.7-0.4
				c0.3-0.1,0.7,0.6,0.7,0.9v-0.1c0.1,0.1,0.4,0.5,0.3,0.6c-0.1,0.1-0.4,0.3-0.3,0.5c0.1,0.4,0.1,0.7,0.1,1.1
				c0.1,0.4,0.3,0.9,0.1,1.3c-0.1,0.1-0.3,0.3-0.4,0.4c0,0.1-0.1,0.1-0.1,0.2c0.1,0.1,0.1,0.1,0.2,0.1l-0.1-0.1c0.1,0,0.2,0,0.4,0.1
				c0.1-0.1,0.1-0.2,0.1-0.4c0-0.3,0.1-1,0.3-1.2c0.1-0.1,0.2-0.1,0.4-0.1c0.1,0,0.1-0.2,0.2-0.3c0.1,0,0.4,0,0.4,0
				c0.4-0.1,1.7-0.2,1.9,0.4c0.1,0.1-0.1,0.4,0,0.6c0.1,0.5,0,1,0.1,1.4c0.1,0.2,0.1,0.5,0.1,0.8c-0.1,0.3-0.6,0.6-0.9,0.4l0.1,0.1
				c-0.1,0.1-0.4,0.3-0.5,0.1c-0.1-0.1-0.1-0.4-0.2-0.4c-0.3,0.1-0.5-0.1-0.8-0.1l0.1,0.1c0.3,0.2,0.9,0.5,1.1,0.8
				c0.1,0.1,0,0.4,0.1,0.6c0.1,0.1,0.2,0.4,0.1,0.5c0,0.2-0.5,0.2-0.6,0.4c-0.1,0.2-0.4,0.9-0.6,0.9c-0.2,0-0.2-0.1-0.4-0.1
				c-0.1-0.1-0.2,0.1-0.3,0.1c-0.1,0-0.4-0.3-0.5-0.3c-0.5-0.2-2.1-1-2.2-1.6c0-0.1,0.1-0.4,0.1-0.6c0-0.5,0.2-0.9,0.2-1.4
				C18,77.9,18,77.6,18,77.4z M81.1,73.9c0.1-0.1,0.1-0.2,0.1-0.3c-0.1-0.2-0.2-0.8,0-1c0.1-0.1,0.2-0.1,0.4-0.1
				c0.1,0,0.1-0.2,0.1-0.2c0.1,0,0.5,0,0.6,0c0.5-0.1,2.1-0.2,2.6,0.3c0.1,0.1,0.1,0.4,0.1,0.5c0.2,0.4,0.3,0.8,0.6,1.1
				c0.1,0.2,0.3,0.4,0.4,0.6c0,0.2-0.6,0.4-1,0.4l0.1,0.1c-0.1,0.1-0.5,0.2-0.6,0.1c-0.1-0.1-0.2-0.4-0.4-0.4c-0.2,0-0.4,0-0.7-0.1
				c0.4,0.4,0.8,0.8,0.8,1.2c0,0.1-0.3,0.4-0.4,0.6c-0.1,0.5-0.5,0.9-0.6,1.4C83,78.5,83,78.8,82.8,79c-0.2,0.2-0.9,0-1.1-0.3v0.1
				c-0.1,0-0.6-0.1-0.6-0.4c0-0.1,0.2-0.4,0-0.6c-0.3-0.2-0.5-0.5-0.8-0.8c-0.2-0.3-0.9-0.6-0.9-0.9c-0.1-0.2,0.1-0.4,0.1-0.6
				c0-0.1-0.1-0.4-0.1-0.5c0.1-0.2,0.6-0.1,0.7-0.4C80.5,74.6,80.8,74.1,81.1,73.9z M42.1,75.8c-0.2-0.1-0.6-0.6-0.4-0.6
				c0.1-0.1,0.4-0.1,0.5-0.2c0.4-0.1,0.6-0.3,0.9-0.4c0.1-0.1,0.2-0.2,0.4-0.2c0.5-0.1,1.4,0.8,1.7,1.1c0.1,0.1,0.3,0.2,0.4,0.3
				c0,0.1-0.1,0.1,0,0.2s0.1,0.1,0.2,0.2c0.1,0.2-0.3,0.5-0.4,0.6c-0.1,0.1,0,0.4-0.1,0.4c-0.1,0-0.3,0-0.4,0
				c-0.1,0-0.3,0.1-0.4,0.1c-0.3-0.1-0.6-0.4-0.9-0.6c-0.2-0.1-0.5-0.3-0.7-0.4c-0.1-0.1-0.4,0-0.4,0C42.3,76.1,42.1,75.9,42.1,75.8
				L42.1,75.8z M39.1,76.8c0.1,0.1,0.7,0.2,1,0c0.3-0.2,0.4-0.5,0.6-0.7c0.3-0.4,0.8-0.8,1.1-1.2c0.1-0.1,0.4-0.4,0.5-0.5
				c0.3-0.6-0.7-1-1.1-1.1c-0.1,0-0.2-0.2-0.3-0.2c-0.1,0-0.3,0.2-0.4,0.1c-0.1,0-0.1-0.1-0.3-0.1c-0.4,0.1-1,0.6-1.2,0.9
				c-0.2,0.2-0.7,0.3-0.9,0.4c-0.1,0.1-0.1,0.3-0.1,0.4c-0.1,0.1-0.3,0.4-0.3,0.5c-0.1,0.3,0.4,0.4,0.6,0.5c0.1,0.1,0.2,0.4,0.5,0.4
				c0.1,0.1-0.1,0.4-0.2,0.4c-0.1,0.1,0.4,0.1,0.5,0.1H39.1z M57.5,74.9c0,0.4,0.2,0.9,0.5,0.9c0.2-0.1,0.4-0.2,0.6-0.4
				c0.4-0.4,0.7-0.4,1.1-0.7c0.1-0.1,0.4-0.1,0.5-0.2c0.4-0.5,0.1-2.1-0.1-2.6c0-0.1,0-0.5-0.1-0.6c-0.1-0.1-0.2-0.1-0.3-0.1
				c-0.1-0.1,0-0.3-0.1-0.4c-0.2-0.2-0.8,0-0.9,0.1c-0.2,0.1-0.4-0.3-0.6-0.1C58,70.8,58,71,57.9,71.1c-0.1,0.1-0.3,0.3-0.4,0.4
				c-0.1,0.4,0.1,0.9,0.1,1.3c0,0.4-0.1,0.8,0.1,1.1c0.1,0.2-0.2,0.4-0.3,0.4C57.3,74.5,57.5,74.9,57.5,74.9L57.5,74.9z M44.8,74.1
				c0.2,0.1,0.8-0.2,0.9-0.6c0.1-0.4,0.1-0.6,0-0.9c-0.1-0.6,0.1-1.1,0-1.7c0-0.2,0.1-0.6,0.1-0.7c-0.1-0.6-1.5-0.4-1.9-0.4
				c-0.1,0-0.4,0-0.4,0c-0.1,0.1-0.1,0.4-0.2,0.4c-0.1,0.1-0.2-0.1-0.4,0.1c-0.2,0.2-0.4,1.1-0.4,1.4c-0.1,0.3-0.4,0.6-0.4,0.9
				c0,0.1,0.1,0.3,0.2,0.4c0.1,0.1,0.1,0.4,0.1,0.6c0.1,0.3,0.7,0.1,0.9,0.1c0.3,0.1,0.5,0.2,0.8,0.1c0.2-0.1,0.1,0.4,0.2,0.5
				C44.4,74.6,44.8,74.3,44.8,74.1L44.8,74.1z M61.6,70.1c0.2,0,0.6,0.2,0.9,0.2l0,0c0,0,0,0,0.1,0c0.1,0,0.4-0.1,0.7-0.1l0,0
				c0.3,0,0.6,0,0.8,0.1c0.2,0.1,0.1,0.2,0.2,0.3c0.1,0.1,0.4,0.1,0.4,0.1c0.1,0.1,0.1,0.4,0.1,0.4c0.2,0.4,0.7,1.6,0.1,1.9
				c-0.1,0.1-0.6,0-0.7,0.1c-0.6,0.1-1.1,0.1-1.6,0.4c-0.3,0.1-0.6,0.2-0.9,0.2l0,0c-0.4,0-0.8-0.5-0.8-0.7l0,0l-0.1,0.1
				c-0.1-0.1-0.5-0.4-0.3-0.5c0.1-0.1,0.5-0.1,0.4-0.3c-0.1-0.3-0.1-0.6-0.1-0.8c0-0.3-0.3-0.7-0.1-1c0.1-0.1,0.4-0.1,0.5-0.3
				C61.3,70.4,61.4,70.2,61.6,70.1C61.5,70.1,61.6,70.1,61.6,70.1L61.6,70.1z M60.4,70.6c0.2,0.1,0.7-0.2,0.8-0.4
				c0-0.2-0.1-0.5-0.1-0.7c-0.1-0.4-0.1-0.9-0.3-1.3c-0.1-0.1,0-0.4-0.1-0.6c-0.3-0.5-1.5-0.3-1.9-0.2c-0.1,0-0.4,0-0.4,0
				c-0.1,0.1-0.1,0.3-0.1,0.3c-0.1,0-0.2,0-0.3,0.1c-0.2,0.2-0.1,0.9-0.1,1.1c0,0.2-0.3,0.5-0.3,0.6c0,0.1,0.1,0.2,0.2,0.3
				c0.1,0.1,0.1,0.4,0.2,0.4c0.2,0.2,0.7,0.1,0.9,0.1c0.3,0,0.5,0.1,0.8,0.1c0.1-0.1,0.2,0.3,0.3,0.4C60,71,60.3,70.8,60.4,70.6
				L60.4,70.6z M27,61.9c0-0.1,0.1-0.3,0.1-0.5c0-0.1,0.1-0.1,0.1-0.3c0-0.1,0.1-0.1,0.1-0.2s0.1-0.1,0.1-0.1l0.1-0.1c0,0,0,0,0.1,0
				h0.1c0.1,0,0.1,0,0.1,0h0.1c0,0,0,0,0.1,0l0,0c0,0,0,0,0.1,0c0.1,0,0.1-0.1,0.1-0.1c0.1-0.1,0.4-0.1,0.5-0.1
				c0.1,0,0.1-0.1,0.2-0.1c0.1,0,0.1-0.1,0.1-0.1c0.1-0.1,0.1-0.1,0.3-0.1c0.1,0,0.1,0,0.1,0h0.1c0,0,0,0,0.1,0c0,0,0,0,0.1,0.1
				c0,0,0,0.1,0.1,0.1l0,0c0,0.1,0,0.1,0.1,0.1c0,0.1,0,0.1,0,0.2c0,0.1,0,0.1,0,0.1s0,0,0,0.1l0,0l0,0l0,0c0,0,0-0.1,0.1-0.1l0,0
				l0,0l0,0v0.1c0,0.1,0,0.1,0,0.1c0,0.1,0,0.1,0,0.1c0,0.1,0,0.1-0.1,0.1c0,0,0,0-0.1,0.1h-0.1c0,0,0,0-0.1,0l0,0
				c-0.1,0-0.1,0.1-0.1,0.1v0.1v0.1c0,0.1,0,0.1-0.1,0.2c0,0.1-0.1,0.2-0.1,0.4c0,0.1-0.1,0.1-0.1,0.2c0,0.1,0,0.1,0,0.1
				c0,0.1-0.1,0.4-0.1,0.5c0,0.1,0,0.1-0.1,0.1c0,0.1,0,0.1-0.1,0.1l-0.1,0.1c0,0-0.1,0.1-0.1,0.1c-0.1,0-0.1,0.1-0.2,0.1l-0.1,0.1
				c0,0.1-0.1,0.1-0.1,0.1l-0.1,0.1l0,0l0,0c-0.1,0-0.1,0-0.1-0.1l0,0C28,63.7,28,63.7,28,63.6l-0.1-0.1l0,0l0,0l0,0
				c-0.1,0-0.1,0-0.1,0c-0.1,0-0.2,0-0.3,0c-0.1,0-0.1,0-0.2-0.1c0,0-0.1,0-0.1-0.1c0,0,0-0.1-0.1-0.1v-0.1v-0.1c0-0.1,0-0.1,0-0.1
				l0,0l0,0c0,0,0-0.1-0.1-0.1l0,0l0,0l0,0l0,0c0,0-0.1,0-0.1-0.1l0,0c0,0,0,0,0-0.1c0-0.1,0-0.1,0-0.1v-0.1v-0.1l0,0v-0.1
				c0-0.1,0-0.1,0-0.1l0,0c-0.1,0-0.3,0.1-0.2,0.1c0.1,0.3-0.1,0.6-0.1,0.9c-0.1,0.3,0.1,0.9-0.1,1c-0.1,0.1-0.4,0.1-0.6,0.1
				c-0.1,0-0.1,0.1-0.2,0.1l0.1,0.1c0.1,0,0.1-0.1,0.2-0.1c0.1,0,0.3,0.2,0.4,0.3c0.4,0.2,1.4,0.9,1.5,1.4c0,0.1-0.1,0.3-0.2,0.4
				c-0.1,0.4-0.3,0.7-0.3,1.1c0,0.2-0.1,0.4-0.1,0.6c-0.1,0.2-0.6,0-0.9-0.1v0.1c-0.1,0-0.5-0.1-0.5-0.2c0-0.1,0.1-0.4-0.1-0.4
				c-0.2-0.1-0.4-0.4-0.6-0.6c-0.2-0.2-0.6-0.4-0.8-0.6c-0.1-0.1,0-0.3,0-0.4c0-0.1-0.1-0.3-0.1-0.4c0.1-0.1,0.4-0.1,0.5-0.3
				c0.1-0.1,0.2-0.4,0.4-0.6c-0.2-0.1-0.5-0.4-0.7-0.4c-0.3,0-1.2-0.1-1.5-0.4c-0.1-0.1-0.1-0.2-0.1-0.4c0-0.1-0.3-0.1-0.4-0.2
				c-0.1-0.1,0-0.4,0-0.4c-0.1-0.4-0.4-1.8,0.3-2c0.1-0.1,0.6,0.1,0.7,0.1c0.6-0.1,1.2,0.1,1.7-0.1C25.4,61,25.8,61,26,61
				C26.7,61.1,27,61.7,27,61.9L27,61.9L27,61.9z M11.6,66.4c0.2-0.1,0.5-0.6,0.4-0.8c-0.1-0.2-0.4-0.4-0.5-0.5
				c-0.4-0.2-0.6-0.6-0.9-0.9c-0.1-0.1-0.2-0.4-0.4-0.4c-0.5-0.2-1.4,0.6-1.6,0.9C8.5,64.9,8.3,65,8.3,65c0,0.1,0.1,0.2,0.1,0.3
				c-0.1,0.1-0.1,0.1-0.2,0.3c-0.1,0.3,0.4,0.8,0.5,0.9c0.1,0.2,0.1,0.6,0.1,0.7c0.1,0.1,0.3,0.1,0.4,0.1c0.1,0,0.3,0.2,0.4,0.2
				c0.3,0,0.6-0.4,0.8-0.5c0.2-0.1,0.5-0.2,0.6-0.4c0.1-0.1,0.4,0.1,0.4,0.1c0.1,0.1,0.3-0.3,0.3-0.4L11.6,66.4z M89.9,63
				c-0.6-0.3-1.3-0.9-1.6-1.1c-0.1-0.1-0.1-0.2-0.2-0.4c-0.3-0.3-0.4-0.6-0.7-0.8c-0.1-0.1-0.4-0.3-0.4-0.4
				c-0.1-0.1,0.6-0.4,0.9-0.3h-0.1c0.1-0.1,0.5-0.2,0.6-0.1c0.1,0.1,0.2,0.2,0.4,0.2c0.4-0.1,0.7,0,1.1,0s0.9-0.1,1.3,0
				c0.1,0.1,0.3,0.2,0.4,0.3c0.1,0.1,0.4,0.1,0.4,0.2c0.1,0.1-0.2,0.3-0.1,0.4c0.1,0.1,0.3,0.6,0.1,0.7c-0.1,0.1-0.2,0.1-0.4,0.1
				c-0.1,0-0.1,0.1-0.1,0.1c0,0-0.3,0.4-0.6,0.6c0.2-0.1,0.4-0.2,0.6-0.2c0.2,0,0.3,0.6,0.2,1l0.1-0.1c0,0.1,0.1,0.5,0,0.6
				c-0.1,0.1-0.4,0.1-0.4,0.4c0,0.4-0.1,0.7-0.2,1.1c-0.1,0.4-0.1,1-0.3,1.3c-0.1,0.1-0.3,0.2-0.4,0.4c-0.1,0.1-0.2,0.3-0.3,0.4
				c-0.1,0.1-0.3-0.4-0.5-0.3c-0.2,0-0.8,0.1-0.9-0.1c-0.1-0.1,0-0.2,0-0.4c0-0.1-0.1-0.1-0.2-0.1c0-0.1,0.1-0.5,0.1-0.6
				c0-0.5,0.1-2.1,0.6-2.6c0.1-0.1,0.4-0.1,0.5-0.1C89.8,63.1,89.8,63,89.9,63z M75.8,62.9C75.8,62.9,75.8,62.9,75.8,62.9
				c-0.3-0.1-0.4-0.2-0.6-0.3c-0.1-0.1-0.6-0.1-0.6-0.3c0-0.1,0.1-0.3,0.1-0.4c0-0.1-0.1-0.2,0-0.3c0.1-0.1,0.4-0.3,0.5-0.5
				c0.1-0.2,0.4-0.8,0.6-0.9c0.1-0.1,0.1,0,0.3,0c0.1,0,0.1-0.1,0.2-0.2c0.1,0,0.2,0.1,0.3,0.1c0.3,0,1.2,0.2,1.1,0.6
				c0,0.1-0.2,0.4-0.2,0.5c-0.1,0.4-0.4,0.8-0.4,1.1c-0.1,0.2-0.1,0.4-0.2,0.6c-0.1,0.1-0.1,0.1-0.2,0.1c0.1,0.1,0.4,0.1,0.5,0.2
				c0.2,0.1,0.1,0.7-0.1,0.9h0.1c0,0.1,0,0.5-0.2,0.5c-0.1,0-0.4-0.1-0.4,0c-0.1,0.3-0.4,0.4-0.6,0.6c-0.2,0.2-0.4,0.7-0.6,0.8
				c-0.1,0.1-0.4-0.1-0.5,0c-0.1,0-0.3,0.1-0.4,0.1c-0.2-0.1-0.2-0.5-0.4-0.6c-0.2-0.1-0.8-0.5-0.8-0.7c0-0.1,0.1-0.2,0.1-0.4
				c0-0.1-0.1-0.2-0.1-0.3c0-0.1,0.2-0.3,0.2-0.4c0.1-0.4,0.7-1.6,1.4-1.5c0.1,0,0.4,0.2,0.5,0.3C75.4,62.7,75.5,62.8,75.8,62.9z
				 M15.2,64.6c0.2-0.1,0.5-0.6,0.4-0.8s-0.4-0.4-0.5-0.5c-0.4-0.2-0.6-0.6-0.9-0.9c-0.1-0.1-0.2-0.4-0.4-0.4
				c-0.5-0.2-1.4,0.6-1.6,0.9c-0.1,0.1-0.3,0.2-0.3,0.2c0,0.1,0.1,0.2,0.1,0.3c-0.1,0.1-0.1,0.1-0.2,0.3c-0.1,0.3,0.4,0.8,0.5,0.9
				c0.1,0.2,0.1,0.6,0.1,0.7c0.1,0.1,0.3,0.1,0.4,0.1c0.1,0,0.3,0.2,0.4,0.2c0.3,0,0.6-0.4,0.8-0.5c0.2-0.1,0.5-0.2,0.6-0.4
				c0.1-0.1,0.4,0.1,0.4,0.1c0.1,0.1,0.3-0.3,0.3-0.4L15.2,64.6z M11.3,59.6c0-0.4-0.4-0.9-0.7-0.9c-0.3,0.1-0.5,0.3-0.7,0.4
				c-0.4,0.4-0.9,0.5-1.3,0.8c-0.1,0.1-0.5,0.1-0.6,0.2c-0.4,0.6,0.1,2.1,0.3,2.6c0,0.1,0.1,0.5,0.1,0.6c0.1,0.1,0.3,0,0.4,0.1
				c0.1,0.1,0,0.3,0.2,0.4c0.2,0.2,0.9-0.1,1.2-0.1c0.2-0.1,0.6,0.2,0.8,0.1c0.1-0.1,0.2-0.3,0.2-0.4c0.1-0.1,0.3-0.3,0.4-0.4
				c0.1-0.4-0.1-0.9-0.1-1.3c-0.1-0.4,0-0.8-0.1-1.1c-0.1-0.2,0.2-0.4,0.3-0.5c0.1-0.1-0.2-0.5-0.3-0.6V59.6z M42.5,59.2
				C42.5,59.2,42.4,59.2,42.5,59.2c-0.5-0.1-0.8-0.4-1.3-0.4c-0.2,0-0.5-0.1-0.7-0.2c-0.2-0.1,0.1-0.8,0.4-0.9l-0.1,0.1
				c0.1-0.1,0.2-0.5,0.4-0.6c0.1,0,0.4,0.1,0.5-0.1c0.2-0.3,0.6-0.5,0.8-0.7c0.3-0.2,0.6-0.8,1-0.9c0.1-0.1,0.4,0,0.6,0
				c0.1,0,0.4-0.1,0.5-0.1c0.2,0.1,0.1,0.5,0.3,0.6c0.2,0.1,0.7,0.4,0.6,0.7c0,0.1-0.1,0.2-0.2,0.4c-0.1,0.1,0.1,0.2,0.1,0.3
				c0,0.1-0.5,1.3-0.6,1.4c-0.3,0.3-0.6,0.4-1.1,0.6c0,0.1,0.1,0.2,0.1,0.3c0.2,0.4,0.7,0.3,0.9,0.7c0.1,0.2,0,1.2,0.1,1.5
				c0.1,0.4-0.1,0.9-0.3,0.9h0.1c0,0.1-0.1,0.5-0.2,0.4c-0.1-0.1-0.2-0.4-0.3-0.4C44,63,43.8,63,43.6,63.1c-0.1,0.1-0.4,0.4-0.6,0.4
				c-0.1-0.1-0.2-0.4-0.3-0.4c-0.1-0.1-0.2-0.1-0.3-0.3c-0.1-0.2,0-0.6-0.1-0.9c-0.1-0.1-0.1-0.4-0.2-0.7c-0.1,0.1-0.5,0.1-0.6,0.1
				c-0.1-0.1-0.2-0.3-0.4-0.2c-0.4,0-0.7-0.1-1.1-0.1s-0.9,0.1-1.3-0.1c-0.1-0.1-0.3-0.2-0.4-0.3c-0.1-0.1-0.4-0.1-0.4-0.2
				C37.7,60.1,38,60,38,59.9c-0.1-0.1-0.3-0.6-0.1-0.7c0.1-0.1,0.2,0,0.4-0.1c0.1,0,0.1-0.1,0.1-0.1c0.1,0,0.5,0,0.6,0
				c0.5-0.1,2.1-0.1,2.6,0.2c0.1,0.1,0.1,0.3,0.2,0.4c0.1,0.1,0.1,0.2,0.2,0.3v-0.1c0-0.1,0.2-0.1,0.2-0.2
				C42.3,59.4,42.4,59.3,42.5,59.2z M71,60.9c-0.3,0.2-0.6,0.8-0.4,0.9c0.1,0.1,0.4,0.1,0.7,0.2c0.4,0.1,0.8,0.3,1.2,0.4
				c0.1,0,0.4,0.2,0.4,0.2c0.6,0,1.7-1.3,2-1.7c0.1-0.1,0.4-0.4,0.4-0.4c0-0.1-0.1-0.2-0.1-0.3c0.1-0.1,0.2-0.1,0.2-0.4
				c0.1-0.3-0.5-0.6-0.6-0.7c-0.2-0.1-0.1-0.5-0.3-0.6c-0.1,0-0.4,0.1-0.5,0.1c-0.2,0.1-0.4-0.1-0.6,0c-0.4,0.1-0.7,0.6-1,0.9
				c-0.3,0.2-0.6,0.4-0.8,0.7c-0.1,0.1-0.4,0.1-0.5,0.1c-0.2,0-0.4,0.4-0.4,0.6L71,60.9z M42,61L42,61L42,61C42,61,41.9,61,42,61
				L42,61z M92.8,59.8c0.2,0,0.7-0.4,0.6-0.6c-0.1-0.2-0.2-0.4-0.4-0.6c-0.3-0.4-0.4-0.8-0.6-1.1c-0.1-0.1-0.1-0.4-0.2-0.5
				c-0.4-0.4-1.6,0.1-2,0.3c-0.1,0-0.4,0.1-0.4,0.1c-0.1,0.1,0,0.3-0.1,0.3c-0.1,0.1-0.2,0-0.3,0.1c-0.1,0.2,0.1,0.9,0.1,1.1
				c0.1,0.2-0.2,0.5-0.1,0.7c0.1,0.1,0.2,0.1,0.4,0.2s0.2,0.3,0.4,0.4c0.3,0.1,0.7-0.1,1-0.1c0.3-0.1,0.6,0,0.9-0.1
				c0.1-0.1,0.3,0.2,0.4,0.3c0.1,0.1,0.4-0.2,0.5-0.3H92.8z M63.4,53.6c0.1-0.2,0.5-0.6,0.6-0.4c0.1,0.1,0.2,0.3,0.2,0.5
				c0.1,0.4,0.3,0.6,0.4,0.9c0.1,0.1,0.2,0.2,0.2,0.3c0.1,0.5-0.7,1.4-1,1.8c-0.1,0.1-0.2,0.4-0.2,0.4c-0.1,0.1-0.1-0.1-0.2,0
				c-0.1,0.1-0.1,0.2-0.2,0.2c-0.2,0.1-0.5-0.3-0.6-0.4c-0.1-0.1-0.4,0-0.4-0.1c-0.1-0.1,0-0.3,0-0.4c0-0.1-0.1-0.3-0.1-0.4
				c0-0.3,0.4-0.6,0.5-0.9c0.1-0.2,0.2-0.5,0.4-0.7c0.1-0.1,0-0.4,0-0.4C63.1,53.7,63.4,53.6,63.4,53.6L63.4,53.6z M64,52.8
				c-0.4,0.4-0.8,0.7-1.1,1.1c-0.1,0.2-0.4,0.5-0.6,0.7s-0.9,0-1.1-0.2v0.1c-0.1,0-0.6-0.1-0.5-0.3c0.1-0.1,0.4-0.4,0.2-0.5
				c-0.3-0.1-0.4-0.4-0.5-0.6c-0.1-0.2-0.6-0.4-0.6-0.8c0-0.1,0.2-0.4,0.3-0.5c0-0.1,0.1-0.3,0.1-0.4c0.1-0.2,0.6-0.1,0.9-0.4
				c0.2-0.2,1-0.8,1.3-0.8c0.2,0,0.2,0.1,0.4,0.1c0.1,0.1,0.3-0.1,0.4-0.1c0.1,0,0.3,0.3,0.4,0.3c0.1,0.1,0.5,0.3,0.8,0.6
				c0.1-0.1,0.1-0.1,0.2-0.1c0.1-0.1,0.4-0.5,0.6-0.5c0.1,0,0.3,0.1,0.4,0.1c0.1,0,0.2-0.1,0.3,0c0.1,0.1,0.1,0.4,0.3,0.5
				c0.1,0.1,0.6,0.4,0.6,0.6c0,0.1-0.1,0.1-0.1,0.2c0,0.1,0.1,0.1,0.1,0.2c0,0.1-0.1,0.9-0.2,1c-0.2,0.3-0.8,0.4-1.1,0.3
				c-0.1,0-0.2-0.2-0.4-0.2C64.4,53.1,64.2,52.9,64,52.8z M50.1,47.5c-0.1-0.1-0.2-0.3-0.3-0.4c-0.1-0.1,0-0.4-0.1-0.5
				c-0.1-0.1-0.1-0.4-0.1-0.4c0.1-0.1,0.4-0.1,0.5-0.3c0.1-0.2,0.3-0.7,0.6-0.6c0.1,0,0.2,0.1,0.4,0.2c0.1,0.1,0.1-0.1,0.3-0.1
				c0.1,0,0.4,0.4,0.4,0.4c0.4,0.3,1.7,1.3,1.8,1.9c0,0.1-0.1,0.3-0.1,0.4c0,0.4-0.2,0.7-0.2,1.2c0,0.2,0,0.5-0.1,0.6
				c-0.1,0.1-0.6,0-0.8-0.2c0.1,0.5,0.1,1.1,0.1,1.6c0,0.1,0.6,0.4,0.5,0.6c0,0.4-0.1,0.6-0.1,1.1c0,0.2,0,0.4-0.1,0.6
				c-0.1,0.1-0.6-0.2-0.8-0.5l0.1,0.1c-0.1-0.1-0.4-0.3-0.5-0.4c0-0.1,0.1-0.4-0.1-0.5c-0.2-0.2-0.4-0.6-0.6-0.9s-0.7-0.7-0.8-1
				c-0.1-0.1,0-0.4-0.1-0.5c-0.1-0.1-0.1-0.4-0.1-0.4c0-0.1,0.4,0,0.4-0.1c0.1-0.1,0.2-0.6,0.5-0.5c0.1,0.1,0.2,0.1,0.3,0.3
				c0.1,0.1,0.1-0.1,0.2,0c0,0,0.3,0.1,0.6,0.1c0-0.1,0-0.2-0.1-0.3c-0.3-0.2-0.5-0.5-0.8-0.8c-0.1-0.1-0.1-0.1-0.1-0.1
				c0,0.1,0,0.1-0.1,0.2l0.1-0.1c0,0.1,0,0.6-0.2,0.6c-0.1,0-0.4-0.1-0.6,0.1c-0.1,0.4-0.4,0.6-0.6,0.9c-0.2,0.3-0.4,0.9-0.8,1.1
				c-0.1,0.1-0.4,0-0.6,0.1c-0.1,0.1-0.4,0.1-0.5,0.1c-0.2-0.1-0.2-0.5-0.5-0.6c-0.2-0.1-0.9-0.4-1-0.7c0-0.2,0.1-0.2,0.1-0.4
				c0-0.1-0.1-0.2-0.1-0.3c0-0.1,0.3-0.4,0.3-0.5c0.2-0.5,0.4-1.1,1.1-1.2c0.1,0,0.9-0.6,1.1-0.6c0.5,0.1,0.5,0.8,1,0.8
				C49.7,47.4,49.9,47.4,50.1,47.5L50.1,47.5z M8,48.9c0-0.4-0.3-0.9-0.6-0.9c-0.2,0.1-0.4,0.3-0.6,0.4c-0.3,0.4-0.7,0.5-1.1,0.8
				c-0.1,0.1-0.4,0.1-0.5,0.2c-0.4,0.6,0.1,2.1,0.2,2.6c0,0.1,0.1,0.5,0.1,0.6c0.1,0.1,0.2,0,0.3,0.1c0.1,0.1,0,0.3,0.1,0.4
				c0.2,0.2,0.8-0.1,1-0.1c0.2-0.1,0.5,0.2,0.6,0.1c0.1-0.1,0.1-0.3,0.2-0.4c0.1-0.1,0.3-0.3,0.4-0.4c0.1-0.4-0.1-0.9-0.1-1.3
				c0-0.4,0-0.8-0.1-1.1c-0.1-0.2,0.2-0.4,0.3-0.5s-0.1-0.5-0.2-0.6L8,48.9z M89.5,47.5c0-0.1,0.1-0.4,0.1-0.6
				c-0.1-0.2-0.3-0.9-0.1-1.1c0.1-0.1,0.1-0.1,0.3-0.1c0.1,0,0-0.2,0.1-0.3c0.1-0.1,0.4-0.1,0.4-0.1c0.4-0.2,1.6-0.6,2-0.3
				c0.1,0.1,0.1,0.4,0.2,0.5c0.2,0.4,0.4,0.8,0.6,1.1c0.1,0.1,0.3,0.4,0.4,0.6c0,0.1-0.1,0.3-0.2,0.4c0.6,0.1,1.4,0.4,1.4,0.9
				c0,0.1-0.3,0.5-0.3,0.6c-0.1,0.6-0.4,1.1-0.6,1.6c-0.1,0.3-0.1,0.6-0.3,0.9c-0.2,0.4-0.9,0.4-1.1,0.3v0.1c-0.1,0-0.6,0.2-0.6,0
				c0-0.1,0.1-0.5,0-0.5c-0.3,0-0.5-0.2-0.7-0.4c-0.2-0.1-0.8-0.1-0.9-0.4c-0.1-0.1,0.1-0.4,0.1-0.6s-0.1-0.3-0.1-0.4
				c0.1-0.2,0.6-0.4,0.7-0.7c0.1-0.2,0.4-0.8,0.6-1.1c-0.1,0-0.2,0-0.4,0c-0.2,0-0.4,0.1-0.6,0.2c0.1,0.1,0.1,0.5,0.1,0.6
				c-0.1,0.1-0.1,0.1-0.1,0.1c-0.1,0,0,0.1-0.1,0.2l-0.2,0.1c-0.2,0.1-0.9,0.4-1.1,0.1C89,49.2,89,49.1,89,49
				c-0.1-0.2-0.2-0.5-0.4-0.7c-0.1-0.1-0.1-0.2-0.2-0.4c0-0.1,0.3-0.4,0.4-0.4h-0.1c0.1-0.1,0.2-0.2,0.3-0.1
				c0.1,0.1,0.1,0.2,0.2,0.1C89.3,47.5,89.4,47.5,89.5,47.5z M8.3,48.2L8.3,48.2c0-0.1,0.1-0.4-0.1-0.5c-0.3,0-0.5-0.2-0.7-0.4
				c-0.2-0.1-0.7-0.1-0.9-0.4c-0.1-0.1,0-0.4-0.1-0.5c0-0.1-0.1-0.3-0.1-0.4c0.1-0.2,0.4-0.4,0.5-0.6s0.3-0.9,0.6-1.1
				c0.1-0.1,0.2,0,0.4,0c0.1,0,0.1-0.2,0.2-0.2c0.1,0,0.4,0.1,0.4,0.1c0.4,0,1.6,0.2,1.7,0.8c0,0.1-0.1,0.4-0.1,0.6
				c0,0.4-0.1,0.6-0.2,1c0.1-0.1,0.3-0.3,0.4-0.3c0.2-0.1,0.5,0.5,0.5,0.7v-0.1c0.1,0.1,0.3,0.4,0.2,0.5c-0.1,0.1-0.3,0.2-0.2,0.4
				c0.1,0.3,0.1,0.6,0.1,0.9c0,0.3,0.2,0.8,0.1,1.1c-0.1,0.1-0.2,0.2-0.3,0.4c-0.1,0.1-0.1,0.3-0.2,0.4c-0.1,0.1-0.4-0.2-0.6-0.1
				C9.7,50.8,9.2,51,9,50.9c-0.1-0.1-0.1-0.2-0.1-0.4c0-0.1-0.2,0-0.2-0.1S8.6,50,8.6,49.9C8.5,49.6,8.3,48.8,8.3,48.2z M77.8,44.6
				L77.8,44.6c0.1-0.2,0.4-0.4,0.5-0.6c0.1-0.2,0.4-0.8,0.6-0.9c0.1-0.1,0.1,0,0.3,0c0.1,0,0.1-0.1,0.2-0.2c0.1,0,0.2,0.1,0.3,0.1
				c0.3,0,1.2,0.2,1.1,0.6c0,0.1-0.2,0.4-0.2,0.5c-0.1,0.4-0.4,0.8-0.4,1.1c-0.1,0.2-0.1,0.4-0.2,0.6c-0.1,0.1-0.3,0.2-0.4,0.2
				c0.1,0.1,0.1,0.2,0.2,0.2c0.2,0.1,0.4,0.4,0.6,0.6c0.1,0.1,0.3,0.1,0.4,0.3c0.1,0.1,0.1,0.5-0.1,0.6h0.1c0,0.1,0,0.3-0.1,0.3
				s-0.2-0.1-0.2-0.1c-0.1,0.1-0.2,0.2-0.3,0.3c-0.1,0.1-0.2,0.4-0.4,0.4c-0.1,0-0.2-0.1-0.3-0.1c-0.1,0-0.1,0-0.2-0.1
				c-0.1-0.1-0.1-0.4-0.2-0.4c-0.1-0.1-0.4-0.4-0.4-0.6c0-0.1,0-0.1,0.1-0.1c0-0.1-0.1-0.1-0.1-0.2l0.1-0.1c0.1-0.1,0.2-0.4,0.4-0.6
				c-0.1,0-0.3,0.1-0.3-0.1c0-0.1,0.1-0.4,0-0.4c-0.2,0-0.4-0.1-0.5-0.3c-0.1,0-0.1-0.1-0.1-0.1v0.1c0.1,0.4,0,0.9,0.1,1.3
				c0.1,0.2,0.1,0.5,0.1,0.7c-0.1,0.2-0.8,0.1-1,0l0.1,0.1c-0.1,0-0.6,0-0.6-0.1c-0.1-0.1-0.1-0.4-0.3-0.4c-0.4-0.1-0.6-0.3-1-0.5
				c-0.3-0.1-0.9-0.3-1.1-0.6c-0.1-0.1-0.1-0.4-0.2-0.5c-0.1-0.1-0.2-0.3-0.3-0.4c0-0.2,0.4-0.2,0.4-0.4s0.1-0.9,0.4-0.9
				c0.1-0.1,0.2,0.1,0.4,0.1c0.1,0,0.1-0.1,0.2-0.1c0.1,0,0.4,0.2,0.5,0.2C76.3,44,77.2,44.3,77.8,44.6z M21.3,44.6
				c-0.1,0-0.1-0.1-0.1-0.1c-0.1,0-0.1-0.1-0.1-0.1L21,44.4l0,0l0,0l0,0l0,0v0.1l0,0l0,0h-0.1c-0.1,0-0.1,0-0.1,0
				c-0.1,0-0.1,0-0.1-0.1l0,0c0,0-0.1,0-0.1-0.1l0,0l0,0c0,0,0-0.1,0.1-0.1l0,0l0,0c0-0.1,0.1-0.1,0.1-0.1l0.1-0.1V44c0,0,0,0,0-0.1
				l0,0c0,0,0,0,0-0.1l0,0l0,0c-0.1,0-0.1-0.1-0.1-0.1c-0.1-0.1-0.2-0.3-0.3-0.5l-0.1-0.1l-0.1-0.1l-0.1-0.1
				c-0.1-0.1-0.2-0.1-0.3-0.2c0,0,0,0,0-0.1c-0.1-0.1-0.1-0.1-0.1-0.2c0,0,0,0,0-0.1c0,0,0,0,0-0.1v-0.1l0.1-0.1
				c0-0.1,0.1-0.1,0.1-0.1c0,0,0.1-0.1,0.1-0.1v-0.1c0-0.1,0-0.1,0-0.1c0-0.1,0-0.1,0-0.1c0-0.1,0.1-0.1,0.1-0.1l0.1-0.1
				c0.1-0.1,0.1-0.1,0.2-0.1c0.1,0,0.3-0.1,0.4-0.1c0.1,0,0.1-0.1,0.2-0.1c0.1-0.1,0.3-0.2,0.5-0.4c0.1-0.1,0.2-0.1,0.4-0.2
				c0.1-0.1,0.1-0.1,0.2-0.1c0.1,0,0.1-0.1,0.2-0.1h0.1c0.1,0,0.1,0,0.1,0c0,0,0,0,0.1,0c0,0,0.1,0,0.1,0.1c0,0,0,0,0.1,0.1l0,0l0,0
				c0,0,0,0,0.1,0h0.1c0.1,0,0.1-0.1,0.2-0.1h0.1c0,0,0,0,0.1,0c0,0,0,0,0.1,0l0.1,0.1c0.1,0.1,0.1,0.1,0.1,0.1l0.1,0.1l0,0l0,0
				c0,0,0,0,0.1,0c0.1,0,0.1,0.1,0.1,0.1c0.2,0.1,0.4,0.2,0.5,0.4c0.1,0.1,0.1,0.1,0.1,0.1l0.1,0.1l0.1,0.1c0,0,0,0.1,0.1,0.1
				c0.1,0.1,0.1,0.3,0.1,0.4V42v0.1v0.1c0,0,0,0,0,0.1l-0.1,0.1l-0.1,0.1c-0.1,0.1-0.2,0.1-0.3,0.2l-0.1,0.1c0,0,0,0-0.1,0.1
				c0,0,0,0.1-0.1,0.1C24.1,42.9,24,42.9,24,43c-0.2,0.2-0.4,0.4-0.6,0.6c-0.1,0.1-0.2,0.2-0.3,0.3L23,43.9L22.9,44
				c-0.1,0.1-0.1,0.2-0.3,0.3c-0.1,0.1-0.1,0.1-0.2,0.1c0,0-0.1,0-0.1,0.1c0,0,0,0-0.1,0c0,0-0.1,0-0.1,0.1l0,0v0.1
				c0.1-0.1,0.4-0.2,0.5-0.1c0.1,0.1,0.3,0.3,0.5,0.2c0.4-0.1,0.7-0.1,1.1-0.1c0.4-0.1,0.9-0.3,1.3-0.1c0.1,0.1,0.3,0.2,0.4,0.3
				c0.1,0.1,0.4,0.1,0.4,0.2c0.1,0.1-0.2,0.4-0.1,0.6c0.1,0.2,0.4,0.8,0.1,0.9c-0.1,0.1-0.2,0.1-0.4,0.1c-0.1,0,0,0.2-0.1,0.3
				c-0.1,0-0.5,0.1-0.6,0.1c-0.5,0.1-2.1,0.6-2.6,0.3c-0.1-0.1-0.1-0.4-0.3-0.4c-0.2-0.2-0.4-0.5-0.6-0.8c0,0.2-0.1,0.4-0.2,0.7
				c-0.1,0.3-0.1,0.8-0.2,1c-0.1,0.1-0.2,0.1-0.4,0.3c-0.1,0.1-0.1,0.2-0.3,0.3c-0.1,0.1-0.3-0.3-0.4-0.3s-0.6,0.1-0.8-0.1
				c-0.1-0.1,0-0.2,0-0.4c0-0.1-0.1-0.1-0.1-0.1c0-0.1,0.1-0.4,0.1-0.4c0-0.4,0.1-1.6,0.5-2c0.1-0.1,0.3,0,0.4-0.1
				c0.4-0.1,0.6-0.1,1-0.3C21.3,44.7,21.3,44.6,21.3,44.6L21.3,44.6z M79.2,46.2L79.2,46.2L79.2,46.2L79.2,46.2z M35.3,40.1
				c0-0.1,0-0.2-0.1-0.3c-0.1-0.1-0.6-0.4-0.5-0.6c0-0.1,0.1-0.1,0.2-0.3c0.1-0.1-0.1-0.1,0-0.2c0-0.1,0.3-0.2,0.4-0.3
				c0.3-0.3,1.1-1.2,1.6-1.1c0.1,0,0.2,0.2,0.4,0.2c0.4,0.1,0.6,0.3,0.9,0.4c0.2,0.1,0.4,0.1,0.5,0.2c0.1,0.1-0.1,0.6-0.4,0.7h0.1
				c-0.1,0.1-0.2,0.4-0.4,0.4c-0.1,0-0.3-0.1-0.4,0c-0.1,0.2-0.4,0.4-0.7,0.5c-0.2,0.1-0.6,0.6-0.8,0.6c0,0,0,0-0.1,0
				c0.1,0.1,0.1,0.1,0.1,0.1c0.1,0.1,0,0.4,0.1,0.6c0.1,0.1,0.1,0.2,0.1,0.4c0.1-0.1,0.3-0.2,0.4-0.3c0.3-0.4,0.7-0.8,1-1.2
				c0.1-0.2,0.3-0.5,0.5-0.7c0.3-0.1,0.9,0.3,1,0.6v-0.1c0.1,0.1,0.6,0.3,0.5,0.5c-0.1,0.1-0.3,0.4-0.1,0.6c0.3,0.3,0.4,0.6,0.5,0.9
				c0.1,0.3,0.6,0.8,0.6,1.1c0,0.2-0.2,0.4-0.2,0.6c0,0.1,0,0.4-0.1,0.5c-0.1,0.1-0.6,0-0.8,0.1c-0.2,0.2-0.8,0.7-1.1,0.6
				c-0.2-0.1-0.2-0.1-0.3-0.3c-0.1-0.1-0.3,0.1-0.4,0c-0.1,0-0.3-0.4-0.4-0.5c-0.1-0.1-0.4-0.5-0.7-0.9l0,0c0,0.3-0.6,0.5-0.8,0.4
				l0.1,0.1c-0.1,0.1-0.4,0.3-0.5,0.1c-0.1-0.1-0.1-0.4-0.3-0.4c-0.3,0.1-0.6-0.1-0.9-0.1c-0.3,0-0.8,0.1-1-0.1
				c-0.1-0.1-0.1-0.3-0.3-0.4c-0.1-0.1-0.2-0.2-0.3-0.3c-0.1-0.2,0.3-0.4,0.3-0.6c0-0.2-0.1-0.9,0.1-1.1c0.1-0.1,0.2-0.1,0.4-0.1
				c0.1,0,0.1-0.2,0.1-0.3c0.1,0,0.4,0,0.4,0C34.5,40.1,34.9,40.1,35.3,40.1z M90.1,40.6c0.1,0.1,0.7,0.3,0.9,0.1
				c0.1-0.2,0.2-0.4,0.2-0.6c0.1-0.4,0.3-0.8,0.4-1.1c0.1-0.1,0.2-0.4,0.2-0.4c0-0.6-1.1-1.1-1.4-1.2c-0.1,0-0.3-0.2-0.4-0.2
				c-0.1,0-0.2,0.1-0.3,0.1c-0.1-0.1-0.1-0.1-0.3-0.1c-0.2,0.1-0.6,0.6-0.7,0.8c-0.1,0.2-0.5,0.2-0.6,0.4c-0.1,0.1,0.1,0.3,0.1,0.4
				c0,0.1-0.1,0.4,0,0.5c0.1,0.3,0.6,0.4,0.7,0.6c0.2,0.1,0.4,0.4,0.6,0.5c0.1,0.1,0,0.4,0,0.4C89.6,40.6,90,40.6,90.1,40.6
				L90.1,40.6z M54.3,36c-0.1,0-0.3-0.1-0.4-0.1c-0.1-0.1-0.1-0.2-0.1-0.4c0-0.1-0.3-0.1-0.4-0.1c-0.1-0.1-0.1-0.5-0.1-0.6
				c-0.1-0.5-0.5-2.1,0-2.6c0.1-0.1,0.4-0.1,0.6-0.1c0.4-0.3,1-0.4,1.4-0.6c0.2-0.1,0.5-0.4,0.8-0.4c0.3,0,0.6,0.6,0.6,0.9l0.1-0.1
				c0.1,0.1,0.4,0.5,0.2,0.6c-0.1,0.1-0.4,0.2-0.4,0.4c0.1,0.4,0,0.7,0,1.1c0,0.2,0.1,0.6,0.1,0.9c0.1-0.1,0.2-0.1,0.2-0.2
				c0.3-0.3,1.1-1.2,1.6-1.1c0.1,0,0.2,0.2,0.4,0.2c0.4,0.1,0.6,0.3,0.9,0.4c0.2,0.1,0.4,0.1,0.5,0.2c0.1,0.1-0.1,0.6-0.4,0.7h0.1
				c-0.1,0.1-0.2,0.4-0.4,0.4c-0.1,0-0.3-0.1-0.4,0c-0.1,0.2-0.4,0.4-0.7,0.5c-0.2,0.1-0.6,0.6-0.8,0.6c-0.1,0-0.3-0.1-0.4-0.1
				c-0.1,0-0.3,0.1-0.4,0c-0.1-0.1,0-0.4-0.1-0.5c-0.1-0.1-0.6-0.4-0.5-0.6l0,0c-0.1,0.1-0.2,0.1-0.3,0.2C56.2,35.8,56,36,56,36.1
				c-0.2,0.1-0.5-0.3-0.8-0.2c-0.1,0-0.1,0-0.2,0.1l0,0c0.3,0,1.2,0.2,1.1,0.6c0,0.1-0.2,0.4-0.2,0.5c-0.1,0.4-0.4,0.8-0.4,1.1
				c-0.1,0.2-0.1,0.4-0.2,0.6c-0.1,0.2-0.6,0.3-0.7,0.1v0.1c-0.1,0-0.4,0.1-0.4,0c0-0.1,0.1-0.4,0-0.4c-0.2,0-0.4-0.1-0.5-0.3
				c-0.1-0.1-0.6-0.1-0.6-0.3c0-0.1,0.1-0.3,0.1-0.4c0-0.1-0.1-0.2,0-0.3c0.1-0.1,0.4-0.3,0.5-0.5C53.8,36.7,54,36.1,54.3,36
				C54.3,36,54.3,36,54.3,36z M11,34.6c0-0.1,0-0.3,0-0.4c0-0.1-0.1-0.3-0.1-0.4c0.1-0.2,0.4-0.4,0.5-0.6s0.3-0.9,0.6-1.1
				c0.1-0.1,0.2,0,0.4,0c0.1,0,0.1-0.2,0.2-0.2c0.1,0,0.4,0.1,0.4,0.1c0.4,0,1.6,0.2,1.7,0.8c0,0.1-0.1,0.4-0.1,0.6
				c0,0.4-0.2,0.9-0.2,1.4c0,0.2,0,0.5-0.1,0.8c-0.1,0.3-0.7,0.4-0.9,0.2l0.1,0.1c-0.1,0-0.5,0.1-0.5,0c0-0.1,0.1-0.4-0.1-0.4
				c-0.3,0-0.5-0.2-0.7-0.4c-0.2-0.1-0.6-0.1-0.8-0.3l0,0c0.1,0.3,0.3,0.6,0.5,0.8l0.1,0.1l0.1,0.1c0.1,0.1,0.2,0.2,0.3,0.4
				c0,0.1,0.1,0.1,0.1,0.1v0.1v0.1c0,0.1,0,0.1,0,0.1c0,0.1-0.1,0.1-0.1,0.2L12,36.9l-0.1,0.1c-0.1,0-0.1,0.1-0.1,0.1
				c-0.1,0.1-0.1,0.1-0.2,0.1h-0.1l0,0l0,0l0,0h0.1l0,0l0,0l0,0l-0.1,0.1l-0.1,0.1l-0.1,0.1c-0.1,0-0.1,0.1-0.1,0.1h-0.1
				c0,0-0.1,0-0.1-0.1c0,0,0-0.1-0.1-0.1c0,0,0,0-0.1-0.1c-0.1-0.1-0.1-0.1-0.1-0.1c0,0-0.1-0.1-0.1,0c0,0,0,0-0.1,0l0,0h-0.1
				c-0.1,0-0.1,0.1-0.2,0.1c-0.1,0-0.3,0.1-0.4,0.1c-0.1,0-0.1,0-0.2,0c-0.1,0-0.1,0.1-0.2,0.1c-0.1,0.1-0.2,0.1-0.3,0.1
				c-0.1,0-0.1,0.1-0.2,0.1H8.9c-0.1,0-0.1,0-0.3,0H8.5c-0.1,0-0.1-0.1-0.1-0.1c-0.1-0.1-0.1-0.1-0.1-0.1l-0.1-0.1
				C8.1,37.1,8.1,37,8,37c-0.1,0-0.1-0.1-0.1-0.1s-0.1,0-0.1-0.1c0,0,0,0-0.1-0.1c0-0.1,0-0.1,0-0.1s0,0,0-0.1c0,0,0,0,0-0.1
				s0.1-0.2,0.1-0.3c0-0.1,0-0.1,0-0.2c0,0,0,0,0-0.1v-0.1c0-0.1,0-0.1-0.1-0.1c-0.1-0.1-0.1-0.2-0.1-0.4c0-0.1-0.1-0.2-0.1-0.3
				c0-0.1,0-0.1,0-0.2c0-0.1,0-0.1,0-0.1v-0.1l0.1-0.1h0.1h0.1h0.1l0,0l0,0l0,0c0,0,0,0,0-0.1s0-0.1,0-0.1v-0.1l0,0l0,0l0,0h0.1
				c0.1,0,0.1-0.1,0.2-0.1h0.1c0,0,0,0,0.1,0c0.1-0.1,0.3-0.1,0.4-0.2c0.2-0.1,0.4-0.1,0.6-0.2c0.1-0.1,0.4-0.1,0.6-0.1
				c0.1,0,0.2,0,0.4,0c0.1,0,0.1,0,0.2,0.1c0,0,0.1,0,0.1,0.1c0,0,0,0,0.1,0.1c0,0,0,0.1,0.1,0.1c0,0,0,0.1,0.1,0.1
				c0,0.1,0.1,0.1,0.1,0.2s0,0.1,0.1,0.1l0.1,0.1C11,34.6,11,34.6,11,34.6L11,34.6z M88.5,33.9c0-0.3,0-0.5,0.1-0.7
				c0.1-0.1,0.3-0.2,0.4-0.4c0.1-0.1,0.1-0.4,0.3-0.4c0.1-0.1,0.4,0.3,0.6,0.2c0.2-0.1,0.8-0.2,0.9,0c0.1,0.1,0.1,0.2,0.1,0.4
				c0,0.1,0.2,0.1,0.2,0.1c0,0.1,0,0.5,0,0.6c0.1,0.5,0.1,2.1-0.3,2.6c-0.1,0.1-0.4,0.1-0.4,0.1c-0.4,0.3-0.7,0.3-1.1,0.6
				c-0.1,0.1-0.4,0.4-0.6,0.4c-0.2,0-0.4-0.6-0.4-0.9l-0.1,0.1v-0.1c-0.4,0.4-0.8,0.8-1.1,0.9c-0.1,0.1-0.3-0.1-0.4-0.1
				c-0.4,0.1-0.6-0.1-1.1,0c-0.2,0.1-0.4,0.1-0.6,0s0.1-0.6,0.4-0.9l-0.1,0.1c0.1-0.1,0.2-0.5,0.4-0.5c0.1,0,0.4,0,0.4-0.2
				c0.2-0.3,0.5-0.5,0.7-0.8c0.2-0.3,0.6-0.8,0.9-0.9c0.1-0.1,0.3-0.1,0.5-0.1C88.3,33.9,88.4,33.9,88.5,33.9z M54.6,35.9
				c-0.1,0-0.1,0-0.2,0C54.5,36,54.5,36,54.6,35.9C54.5,36,54.5,36,54.6,35.9z M13,30.2c0.2-0.2,0.4-0.9,0.1-1.1
				C12.9,29,12.5,29,12.3,29c-0.5,0-0.9-0.3-1.4-0.4c-0.2,0-0.4-0.2-0.6-0.2c-0.7,0.1-1.4,1.6-1.6,2.1c0,0.1-0.3,0.4-0.3,0.5
				c0,0.1,0.2,0.2,0.1,0.3c-0.1,0.1-0.1,0.2-0.1,0.4c0.1,0.3,0.7,0.6,1,0.7c0.2,0.1,0.3,0.6,0.5,0.6c0.1,0,0.4-0.1,0.5-0.1
				c0.2-0.1,0.4,0,0.6-0.1c0.4-0.1,0.6-0.8,0.8-1.1c0.2-0.3,0.5-0.6,0.6-0.9c0.1-0.2,0.4-0.1,0.6-0.1c0.2,0,0.2-0.5,0.2-0.6L13,30.2
				z M68.4,27.9c-0.2-0.2-0.6-0.6-0.6-0.9c0-0.1,0-0.1,0.1-0.2c0-0.1-0.1-0.2-0.1-0.3c0-0.1,0.1-0.2,0.1-0.2
				c0.1-0.3,0.4-1.1,0.9-0.9c0.1,0.1,0.3,0.3,0.4,0.4c0.3,0.2,0.6,0.6,0.9,0.9c0.1,0.1,0.4,0.3,0.5,0.4c0.1,0.1,0.1,0.4,0.1,0.6
				c0.1,0,0.1,0,0.1,0.1c0.1,0.1,0.1,0.4,0.4,0.4c0.4,0,0.7,0.1,1.1,0.1c0.4,0.1,1,0,1.3,0.2c0.1,0.1,0.2,0.3,0.4,0.4
				c0.1,0.1,0.4,0.2,0.4,0.3c0.1,0.1-0.3,0.4-0.3,0.6c0.1,0.2,0.1,0.8-0.1,0.9c-0.1,0.1-0.2,0-0.4,0.1c-0.1,0-0.1,0.2-0.1,0.2
				c-0.1,0-0.5-0.1-0.6-0.1c-0.5,0.1-2.1,0.1-2.6-0.4C70,30.5,70,30.2,70,30.1c-0.2-0.4-0.3-0.8-0.5-1.1c-0.1,0-0.1,0-0.1,0
				s-0.2-0.1-0.4-0.2c0.2,0.3,0.4,0.6,0.6,0.9c0.1,0.1,0.4,0.4,0.4,0.6c0.1,0.3-0.4,0.6-0.6,0.7h0.1c-0.1,0.1-0.3,0.4-0.4,0.3
				c-0.1-0.1-0.2-0.4-0.4-0.2c-0.2,0.1-0.6,0.1-0.8,0.2c-0.3,0.1-0.7,0.4-1,0.3c-0.1-0.1-0.2-0.2-0.4-0.3c-0.1-0.1-0.3-0.1-0.4-0.2
				c-0.1-0.1,0.1-0.5,0-0.7c-0.1-0.2-0.4-0.9-0.3-1.1c0.1-0.1,0.1-0.1,0.3-0.2c0.1-0.1,0-0.2,0.1-0.3c0-0.1,0.4-0.1,0.4-0.1
				C67,28.3,67.9,27.8,68.4,27.9z M33,28.9C33,29,33,29,33,28.9c-0.3,0.4-1,1.5-1.6,1.4c-0.1,0-0.3-0.3-0.4-0.3
				c-0.4-0.1-0.7-0.4-1.1-0.6c-0.2-0.1-0.5-0.1-0.6-0.3c-0.2-0.2,0-0.8,0.2-0.9h-0.1c0-0.1,0.1-0.5,0.2-0.5c0.1,0,0.4,0.2,0.4,0
				c0.1-0.2,0.4-0.4,0.6-0.6c0.2-0.2,0.4-0.6,0.7-0.7c0.1,0,0.4,0.1,0.5,0.1c0.1,0,0.3-0.1,0.4,0c0.1,0.1,0.1,0.5,0.4,0.6
				c0.2,0.1,0.7,0.6,0.7,0.8c0,0.1-0.1,0.2-0.1,0.3l0,0l0,0c0,0,0-0.1,0.1-0.1c0,0,0,0,0.1-0.1c0,0,0.1,0,0.1-0.1h0.1h0.1h0.1l0,0
				l0,0l0,0c0,0,0,0,0-0.1c0-0.1,0-0.1,0.1-0.1v-0.1l0,0l0,0l0,0h0.1c0.1,0,0.1,0,0.2,0h0.1c0,0,0,0,0.1,0c0.1,0,0.3-0.1,0.4-0.1
				c0.2,0,0.4-0.1,0.6-0.1c0.1,0,0.3,0,0.5,0.1c0.1,0,0.2,0.1,0.3,0.1c0.1,0,0.1,0.1,0.1,0.1l0.1,0.1c0,0,0,0,0,0.1v0.1v0.1
				c0,0.1,0,0.1,0,0.2c0,0.1,0,0.1,0,0.1v0.1v0.1c0,0.1,0.1,0.1,0.1,0.3c0.1,0.3,0.1,0.5,0.1,0.8c0,0.1,0,0.1,0.1,0.1
				c0,0.1,0.1,0.1,0.1,0.1c0.1,0.1,0.1,0.2,0.1,0.4c0,0.1,0,0.1,0,0.1v0.1c0,0.1,0,0.1-0.1,0.1c0,0.1-0.1,0.1-0.1,0.1c0,0,0,0-0.1,0
				c0,0-0.1,0-0.1,0.1c0,0-0.1,0-0.1,0.1c-0.1,0-0.1,0-0.1,0.1c-0.1,0-0.1,0-0.2,0h-0.1l0,0l0,0l0,0c0,0,0.1,0,0.1,0.1l0,0l0,0l0,0
				l-0.1,0.1c-0.1,0-0.1,0.1-0.1,0.1h-0.1c-0.1,0-0.1,0-0.1,0c0,0,0,0-0.1,0c0,0,0,0,0-0.1v-0.1v-0.1c0-0.1-0.1-0.1-0.1-0.1
				l-0.1-0.1h-0.1l0,0c0,0,0,0-0.1,0c-0.1,0-0.1,0-0.1,0c-0.2,0-0.4-0.1-0.6-0.1c-0.1,0-0.1,0-0.1,0c-0.1,0-0.1,0-0.2,0
				c-0.1,0-0.2,0-0.4,0h-0.1h-0.1c-0.1,0-0.2-0.1-0.3-0.1s-0.1-0.1-0.1-0.1c-0.1-0.1-0.1-0.1-0.1-0.2c0,0,0-0.1-0.1-0.1L33,30.2
				c-0.1,0-0.1-0.1-0.1-0.1l-0.1-0.1V30c0-0.1,0-0.1,0-0.1l0,0l0,0c0.1-0.1,0.1-0.1,0.1-0.2c0-0.1,0.1-0.1,0.1-0.1v-0.1v-0.1v-0.1
				C33,29.1,33,29,33,28.9L33,28.9z M87,26c0.2-0.1,0.3-0.8,0.1-1.1c-0.2-0.2-0.5-0.4-0.8-0.5c-0.5-0.2-0.9-0.6-1.4-0.9
				c-0.1-0.1-0.4-0.4-0.6-0.4c-0.6-0.2-1.3,1.1-1.4,1.5c0,0.1-0.2,0.3-0.2,0.4s0.2,0.3,0.1,0.4c-0.1,0.1-0.1,0.1-0.1,0.4
				c0.1,0.4,0.7,0.9,1,1.1c0.2,0.2,0.3,0.7,0.5,0.8c0.1,0.1,0.4,0,0.4,0.1c0.1,0,0.4,0.2,0.6,0.1c0.3,0,0.5-0.6,0.6-0.8
				c0.2-0.2,0.4-0.4,0.6-0.6c0.1-0.2,0.4,0.1,0.5,0.1c0.2,0.1,0.1-0.4,0.1-0.6L87,26z M34.3,27.1c-0.1,0.2,0,0.7,0.2,0.7
				c0.1,0,0.4-0.1,0.5-0.2c0.3-0.2,0.6-0.2,0.9-0.4c0.1-0.1,0.3,0,0.4-0.1c0.4-0.3,0.4-1.5,0.4-1.9c0-0.1,0.1-0.4,0.1-0.4
				c0-0.1-0.1-0.1-0.1-0.1c0-0.1,0.1-0.2,0-0.3c-0.1-0.1-0.6-0.1-0.7-0.1c-0.1,0-0.3-0.3-0.4-0.2c-0.1,0-0.1,0.2-0.2,0.3
				c-0.1,0.1-0.2,0.1-0.3,0.3c-0.1,0.2-0.1,0.7-0.1,0.9c-0.1,0.3-0.1,0.5-0.1,0.8c0,0.1-0.2,0.2-0.3,0.3
				C34,26.8,34.2,27.1,34.3,27.1L34.3,27.1z M80.4,23.4c-0.1-0.1-0.2-0.3-0.2-0.4l-0.1,0.1c-0.1-0.1-0.5-0.4-0.3-0.5
				c0.1-0.1,0.5-0.1,0.4-0.3c-0.1-0.3-0.1-0.6-0.1-0.8c0-0.3-0.3-0.7-0.1-1c0.1-0.1,0.4-0.1,0.5-0.3c0.1-0.1,0.2-0.2,0.4-0.3
				c0.2-0.1,0.6,0.2,0.9,0.2c0.3,0,1.2-0.1,1.5,0.1c0.2,0.1,0.1,0.2,0.2,0.3c0.1,0.1,0.4,0.1,0.4,0.1c0.1,0.1,0.1,0.4,0.1,0.4
				c0.2,0.4,0.7,1.6,0.1,1.9c-0.1,0.1-0.6,0-0.7,0.1c-0.5,0.1-1.1,0.1-1.6,0.4c0.2,0.1,0.4,0.1,0.4,0.2c0.1,0.1,0,0.1,0,0.3
				c0,0.1,0.1,0.1,0.2,0.1c0,0.1-0.1,0.3-0.1,0.4c0,0.4,0,1.4-0.5,1.6c-0.1,0-0.4-0.1-0.4-0.1c-0.4,0.1-0.7,0-1.1,0.1
				c-0.2,0.1-0.4,0.1-0.6,0c-0.2-0.1-0.4-0.5-0.2-0.7l-0.1,0.1c0-0.1-0.1-0.4,0-0.4c0.1,0,0.4,0,0.4-0.1c0-0.2,0.1-0.4,0.2-0.6
				C80.3,24,80.3,23.6,80.4,23.4L80.4,23.4z M53,19.6C53,19.6,53,19.5,53,19.6c0.1-0.1,0.2-0.4,0.4-0.4c0.2-0.1,0.7,0.1,1-0.1
				s1.1-0.4,1.5-0.3c0.2,0.1,0.1,0.1,0.3,0.3c0.1,0.1,0.4,0,0.4,0s0.1,0.4,0.2,0.4c0.3,0.3,1.1,1.4,0.6,1.9
				c-0.1,0.1-0.5,0.1-0.7,0.3c-0.5,0.3-1.1,0.5-1.5,0.8c-0.2,0.1-0.5,0.4-0.9,0.4c-0.1,0-0.1,0-0.1,0C54,22.9,54,23,54,23.1
				c-0.1,0.4-0.4,0.8-0.4,1.1c-0.1,0.2-0.1,0.4-0.2,0.6c-0.1,0.2-0.6,0.3-0.7,0.1v0.1c-0.1,0-0.4,0.1-0.4,0c0-0.1,0.1-0.4,0-0.4
				c-0.2,0-0.4-0.1-0.5-0.3c-0.1-0.1-0.6-0.1-0.6-0.3c0-0.1,0.1-0.3,0.1-0.4c0-0.1-0.1-0.2,0-0.3c0.1-0.1,0.4-0.3,0.5-0.5
				c0.1-0.2,0.4-0.8,0.6-0.9c0.1-0.1,0.1,0,0.3,0c0.1,0,0.1-0.1,0.2-0.2c0,0,0.1,0,0.2,0.1c0.1-0.1,0.4-0.2,0.3-0.4
				c-0.1-0.1-0.1-0.1-0.1-0.1c-0.1,0-0.1,0.1-0.2,0.1c-0.4,0.3-1,0.4-1.4,0.6c-0.2,0.1-0.5,0.3-0.8,0.4c-0.4,0.1-0.9-0.2-0.9-0.4
				v0.1c-0.1-0.1-0.5-0.2-0.4-0.4c0.1-0.1,0.4-0.2,0.3-0.4c-0.2-0.1-0.1-0.4-0.2-0.6c-0.1-0.2-0.4-0.5-0.3-0.8
				c0.1-0.1,0.3-0.2,0.4-0.4c0.1-0.1,0.1-0.2,0.3-0.3c0.2-0.1,0.6,0.1,0.9-0.1c0.3-0.1,1.1-0.4,1.4-0.3c0.2,0.1,0.1,0.1,0.2,0.2
				c0.1,0.1,0.3,0,0.4,0C52.9,19.4,53,19.4,53,19.6z M18.8,22c0.1-0.2,0.1-0.4,0.1-0.6c-0.1-0.2-0.4-0.9-0.2-1.2
				c0.1-0.1,0.2-0.1,0.4-0.2c0.1-0.1,0-0.3,0.1-0.4c0.1-0.1,0.5-0.1,0.6-0.1c0.5-0.2,2-0.9,2.6-0.4c0.1,0.1,0.1,0.4,0.3,0.6
				c0.4,0.4,0.5,0.9,0.9,1.2c0.2,0.2,0.4,0.4,0.5,0.6c0.1,0.3-0.5,0.7-0.9,0.7h0.1c-0.1,0.1-0.4,0.4-0.6,0.3
				c-0.1-0.1-0.3-0.4-0.5-0.3c-0.3,0.1-0.7,0.1-1.1,0.2c-0.4,0.1-0.9,0.4-1.3,0.2c-0.1-0.1-0.3-0.3-0.5-0.4
				C19,22.2,18.8,22.1,18.8,22L18.8,22c-0.1,0.1-0.1,0.2-0.1,0.3c0,0.1-0.1,0.1-0.1,0.1c0,0.1-0.1,0.1-0.1,0.1l0,0l0,0l0,0l0,0h0.1
				l0,0l0,0c0,0,0,0,0,0.1v0.1c0,0.1,0,0.1,0,0.1c0,0,0,0.1-0.1,0.1l-0.1,0.1h-0.1l0,0h-0.1c0,0,0,0-0.1,0l0,0l0,0l0,0l0,0h-0.1l0,0
				l0,0c0,0,0,0,0,0.1c0,0.1-0.1,0.1-0.1,0.1c-0.1,0.1-0.1,0.1-0.2,0.1c-0.1,0-0.1,0.1-0.1,0.1c-0.1,0-0.1,0.1-0.1,0.1l-0.1,0.1
				c-0.1,0.1-0.1,0.1-0.1,0.1c0,0.1-0.1,0.1-0.1,0.1c-0.1,0.1-0.1,0.1-0.1,0.1s0,0-0.1,0s-0.1,0-0.1-0.1c-0.1,0-0.1-0.1-0.1-0.1
				c0,0-0.1,0-0.1-0.1c0,0-0.1,0-0.1,0c-0.1,0-0.1,0-0.1,0c-0.1,0-0.1,0-0.1,0l0,0l-0.1-0.1c0-0.1,0-0.1-0.1-0.1
				c0-0.1-0.1-0.2-0.1-0.3c0-0.1-0.1-0.1-0.1-0.1c-0.1-0.1-0.1-0.1-0.1-0.1c-0.1-0.1-0.1-0.1-0.2-0.2c-0.1-0.1-0.1-0.1-0.1-0.2
				c-0.1-0.1-0.1-0.1-0.1-0.1c0-0.1-0.1-0.1-0.1-0.1v-0.1V22c0,0,0,0,0-0.1c0,0,0,0,0.1-0.1c0,0,0,0,0-0.1l0,0l0,0l0,0
				c0,0,0,0,0-0.1c0-0.1-0.1-0.1-0.1-0.1v-0.1l0,0l0,0c0,0,0-0.1,0.1-0.1c0-0.1,0.1-0.1,0.1-0.1c0,0,0,0,0.1-0.1l0,0l0,0
				c0,0,0,0,0-0.1c0-0.1,0.1-0.1,0.1-0.1c0.1-0.1,0.1-0.2,0.2-0.3c0.1-0.1,0.1-0.2,0.2-0.3c0.1-0.1,0.1-0.1,0.2-0.2
				c0.1-0.1,0.1-0.1,0.2-0.1c0.1,0,0.1-0.1,0.2-0.1h0.1l0,0l0,0c0,0,0,0,0.1,0H17c0.1,0,0.1-0.1,0.2-0.1c0.1-0.1,0.2-0.1,0.4-0.1
				c0.1,0,0.1-0.1,0.1-0.1c0,0,0,0,0.1,0l0,0l0,0c0,0,0.1,0,0.1,0.1l0.1,0.1c0,0.1,0.1,0.1,0.1,0.1c0,0.1,0.1,0.1,0.1,0.2
				c0,0.1,0,0.2,0.1,0.4c0,0.1,0,0.1,0,0.1c0,0.1,0,0.1,0.1,0.1c0,0.1,0.1,0.1,0.1,0.2c0,0,0.1,0,0.1,0.1c0.1,0,0.1,0.1,0.1,0.1
				c0.1,0.1,0.2,0.1,0.4,0.2l0.1,0.1C18.8,21.9,18.8,21.9,18.8,22C18.8,21.9,18.8,21.9,18.8,22L18.8,22z M20.1,18.8
				c0.1,0.2,0.6,0.4,0.7,0.3s0.3-0.4,0.4-0.5c0.1-0.4,0.5-0.6,0.6-0.9c0.1-0.1,0.3-0.2,0.4-0.4c0.1-0.5-0.6-1.2-1-1.4
				c-0.1,0-0.2-0.3-0.3-0.3c-0.1,0-0.2,0.1-0.3,0.1c-0.1-0.1-0.1-0.1-0.2-0.1c-0.2,0-0.6,0.4-0.8,0.5c-0.1,0.1-0.5,0.1-0.6,0.2
				C19,16.3,19,16.5,19,16.6c0,0.1-0.4,2.4-0.4,2.5c0,0.3,1,0.4,1.1-0.4c0-0.1,0.3,0.2,0.4,0.3L20.1,18.8z M72.6,14.1
				c-0.1,0.1-0.2,0.1-0.2,0.2c-0.1,0.2-0.2,0.7-0.4,0.9c-0.1,0.1-0.1,0-0.3,0c-0.1,0-0.1,0.1-0.2,0.1c-0.1,0-0.3-0.1-0.4-0.1
				c-0.4-0.1-1.4-0.3-1.5-0.8c0-0.1,0.1-0.4,0.1-0.4c0-0.4,0.1-0.7,0.1-1.1c0-0.2,0-0.4,0.1-0.6c0.1-0.2,0.6-0.2,0.8-0.1l-0.1-0.1
				c0.1,0,0.4-0.1,0.4,0.1c0,0.1-0.1,0.4,0.1,0.4s0.4,0.2,0.6,0.3c0.2,0.1,0.6,0.1,0.8,0.4c0.1,0.1,0,0.3,0.1,0.4l0,0
				c0.1-0.1,0.2-0.2,0.3-0.4c0.1-0.1,0.1-0.4,0.2-0.4c0.2-0.1,0.6,0.2,0.8,0.1c0.2-0.1,0.9-0.4,1.2-0.2c0.1,0.1,0.1,0.2,0.2,0.4
				c0.1,0.1,0.3,0,0.4,0.1c0.1,0.1,0.1,0.5,0.1,0.6c0.2,0.5,0.9,2,0.4,2.6c-0.1,0.1-0.4,0.1-0.6,0.3c-0.4,0.4-0.9,0.5-1.2,0.9
				c-0.2,0.2-0.4,0.4-0.6,0.5c-0.3,0.1-0.7-0.5-0.7-0.9v0.1c-0.1-0.1-0.4-0.4-0.3-0.6c0.1-0.1,0.4-0.3,0.3-0.5
				c-0.1-0.3-0.1-0.7-0.2-1.1C72.8,14.7,72.7,14.4,72.6,14.1z M70.9,17.4c0,0.1,0.1,0.4,0.3,0.4c0.1,0,0.2-0.1,0.3-0.1
				c0.1-0.1,0.4-0.1,0.6-0.3c0.1-0.1,0.2-0.1,0.2-0.1c0.2-0.2,0-0.9-0.1-1.1c0,0,0-0.2-0.1-0.2c0,0-0.1,0-0.1-0.1s0-0.1-0.1-0.1
				c-0.1-0.1-0.4,0-0.5,0s-0.2-0.1-0.3-0.1c-0.1,0-0.1,0.1-0.1,0.1c-0.1,0.1-0.1,0.1-0.1,0.1c-0.1,0.1,0,0.4,0,0.6
				c0,0.1,0,0.3,0,0.4c0,0.1-0.1,0.1-0.1,0.2C70.8,17.1,70.9,17.4,70.9,17.4L70.9,17.4z M32.8,11.6c-0.2-0.2-0.3-0.8-0.1-1l-0.1,0.1
				c0-0.1-0.1-0.6,0-0.7c0.1-0.1,0.5-0.1,0.5-0.3c0-0.4,0.2-0.7,0.4-1c0.1-0.4,0.1-1,0.4-1.2c0.1-0.1,0.4-0.1,0.6-0.2
				C34.5,7.2,34.7,7,34.8,7c0.2,0,0.4,0.4,0.6,0.4c0.3,0,1,0.1,1.1,0.4c0.1,0.1,0,0.3,0,0.4c0,0.1,0.2,0.1,0.2,0.2
				c0,0.1-0.1,0.5-0.1,0.6c0,0.5-0.2,2.1-0.9,2.5c-0.1,0.1-0.4-0.1-0.6,0c-0.5,0.1-1,0-1.5,0.2c-0.1,0-0.1,0-0.1,0.1
				c0.1,0.1,0.1,0.1,0.2,0.1c0.2,0,0.7,0.1,0.9,0.3c0.1,0.1,0,0.1,0,0.3c0,0.1,0.1,0.1,0.2,0.1c0,0.1-0.1,0.3-0.1,0.4
				c0,0.4,0,1.4-0.5,1.6c-0.1,0-0.4-0.1-0.4-0.1c-0.4,0.1-0.7,0-1.1,0.1c-0.2,0.1-0.4,0.1-0.6,0c-0.2-0.1-0.4-0.5-0.2-0.7l-0.1,0.1
				c0-0.1-0.1-0.4,0-0.4c0.1,0,0.4,0,0.4-0.1c0-0.2,0.1-0.4,0.2-0.6c0.1-0.1,0.1-0.3,0.1-0.5l0,0c0,0.1,0,0.1-0.1,0.1l-0.1,0.1
				c-0.1,0.1-0.1,0.1-0.1,0.1c-0.1,0.1-0.1,0.1-0.2,0.1c-0.1,0-0.1,0.1-0.2,0.1h-0.1l0,0l0,0l0,0h0.1l0,0l0,0l0,0
				c-0.1,0-0.1,0.1-0.1,0.1c-0.1,0.1-0.1,0.1-0.2,0.1c-0.1,0-0.1,0.1-0.1,0.1h-0.1c0,0-0.1,0-0.1-0.1l-0.1-0.1
				C31,12.8,31,12.8,31,12.7c0,0-0.1-0.1-0.1-0.1h-0.1c0,0,0,0-0.1,0c0,0,0,0-0.1,0c-0.1,0-0.1,0.1-0.2,0.1
				c-0.2,0.1-0.4,0.1-0.6,0.1c-0.1,0-0.1,0-0.2,0c-0.1,0-0.1,0-0.1,0c-0.1,0-0.1,0-0.2,0.1c-0.1,0.1-0.4,0.1-0.5,0.1
				c-0.1,0-0.2,0-0.3,0s-0.1,0-0.1,0c-0.1,0-0.1-0.1-0.1-0.1c-0.1-0.1-0.1-0.1-0.3-0.2c-0.1,0-0.1-0.1-0.1-0.1
				c-0.1,0-0.1-0.1-0.2-0.1l0,0c-0.1,0-0.1-0.1-0.1-0.1c0-0.1,0-0.1,0-0.1l0,0c0,0,0,0,0-0.1v-0.1v-0.1c0,0,0,0,0-0.1c0,0,0,0,0-0.1
				s0-0.1,0-0.2v-0.1c0-0.1-0.1-0.1-0.1-0.1c-0.1-0.1-0.1-0.2-0.1-0.3c0-0.1-0.1-0.1-0.1-0.2c0-0.1,0-0.1,0-0.2c0-0.1,0-0.1,0-0.1
				v-0.1c0,0,0,0,0-0.1l0.1-0.1c0,0,0.1,0,0.1-0.1c0.1,0,0.1,0,0.1-0.1l0,0l0,0l0,0v-0.1c0-0.1,0-0.1,0-0.1V10l0,0l0,0
				c0,0,0,0,0.1,0c0.1,0,0.1,0,0.1-0.1c0.1,0,0.1,0,0.1-0.1c0.1,0,0.1,0,0.1,0c0,0,0,0,0.1,0H28c0.1-0.1,0.2-0.1,0.4-0.1
				c0.1-0.1,0.3-0.1,0.4-0.1s0.3-0.1,0.4-0.1c0.1,0,0.3-0.1,0.4-0.1s0.3,0,0.4,0c0.1,0,0.2,0,0.3,0.1h0.1c0,0,0,0,0.1,0
				c0,0,0,0.1,0.1,0.1c0,0,0,0.1,0.1,0.1c0,0.1,0.1,0.1,0.1,0.1c0,0,0,0.1,0.1,0.1c0,0,0,0.1,0.1,0.1l0,0c0,0,0,0,0.1,0.1
				c0.1,0.1,0.1,0.1,0.1,0.1c0.1,0.2,0.2,0.4,0.4,0.6c0.1,0.1,0.1,0.2,0.2,0.3c0.1,0.1,0.1,0.1,0.1,0.1c0.1,0.1,0.1,0.1,0.2,0.3
				c0.1,0.1,0.1,0.1,0.1,0.2c0,0,0,0,0,0.1c0,0,0,0,0,0.1v0.1l0,0c0-0.1,0.1-0.2,0.1-0.3C32.7,11.7,32.8,11.6,32.8,11.6z M58.9,9.2
				c-0.1,0-0.1,0-0.1-0.1L58.9,9.2c-0.1,0.1-0.6,0.1-0.7,0c-0.1-0.1,0-0.5-0.2-0.5c-0.4-0.1-0.6-0.3-1-0.4c-0.4-0.1-1-0.2-1.2-0.5
				c-0.1-0.1-0.1-0.4-0.2-0.6c-0.1-0.1-0.2-0.3-0.2-0.4c0-0.2,0.4-0.4,0.5-0.6c0.1-0.3,0.1-1,0.5-1.1c0.2-0.1,0.3,0,0.4,0.1
				c0.1,0,0.1-0.2,0.3-0.2c0.1,0,0.4,0.1,0.6,0.1c0.5,0.1,2.1,0.4,2.4,1.1c0.1,0.1-0.1,0.4-0.1,0.6s0,0.4,0,0.6l0,0
				c0.1-0.1,0.2,0.3,0.4,0.3c0.1,0,0.4-0.1,0.6-0.1c0-0.1,0-0.3,0.1-0.4c0.1-0.1,0.4-0.1,0.6-0.2c0.1-0.1,0.2-0.2,0.4-0.2
				c0.3,0,0.6,0.4,0.9,0.4c0.3,0,1.2,0.1,1.5,0.3c0.1,0.1,0.1,0.2,0.1,0.4c0,0.1,0.3,0.1,0.4,0.2c0.1,0.1,0,0.4,0.1,0.4
				c0.1,0.4,0.5,1.7-0.2,1.9c-0.1,0.1-0.6-0.1-0.7,0c-0.6,0.1-1.1,0-1.7,0.1c-0.3,0.1-0.6,0.1-0.9,0.1c-0.2,0-0.4-0.2-0.6-0.4
				c-0.3,0.2-0.6,0.4-0.7,0.6c-0.1,0.1,0,0.6-0.1,0.8c-0.3,0.2-0.6,0.3-0.9,0.5c-0.1,0.1-0.4,0.3-0.5,0.3c-0.2,0-0.2-0.6-0.1-0.9
				l-0.1-0.1c0-0.1-0.1-0.5,0.1-0.6c0.1-0.1,0.3-0.1,0.3-0.4C58.7,9.9,58.8,9.6,58.9,9.2L58.9,9.2z M45.9,10.3
				c-0.1,0-0.4,0.1-0.4,0.2c0,0.1,0.1,0.2,0.1,0.3c0.1,0.2,0.1,0.4,0.2,0.6c0,0.1,0,0.2,0.1,0.2c0.2,0.2,0.9,0.1,1.1,0.1h0.2
				c0,0,0-0.1,0.1-0.1c0.1,0,0.1,0,0.1-0.1c0.1-0.1,0.1-0.4,0-0.5c0-0.1,0.1-0.2,0.1-0.3s-0.1-0.1-0.1-0.1c-0.1-0.1-0.1-0.1-0.1-0.2
				c-0.1-0.1-0.4,0-0.6,0c-0.1,0-0.3-0.1-0.4,0c-0.1,0-0.1-0.1-0.1-0.1C46.1,10.1,45.9,10.3,45.9,10.3L45.9,10.3z M45.5,10
				c0.3,0.1,1-0.1,1-0.4S46.4,9,46.3,8.8c-0.2-0.5-0.2-1-0.4-1.4c-0.1-0.1,0-0.5-0.1-0.6c-0.4-0.6-2.1-0.5-2.6-0.4
				c-0.1,0-0.5-0.1-0.6,0c-0.1,0.1-0.1,0.3-0.2,0.3c-0.1,0-0.3-0.1-0.4,0.1c-0.2,0.2-0.2,0.9-0.1,1.2c0,0.3-0.4,0.5-0.4,0.7
				c0,0.1,0.2,0.3,0.4,0.4c0.1,0.1,0.2,0.4,0.4,0.5c0.3,0.2,0.9,0.1,1.3,0.2c0.4,0.1,0.7,0.2,1.1,0.1c0.2,0,0.3,0.4,0.4,0.4
				c0.1,0.1,0.6-0.1,0.6-0.1L45.5,10z M47,6.5c-0.3-0.1-1,0.2-1,0.5c0,0.3,0.1,0.6,0.3,0.8c0.3,0.4,0.3,0.9,0.6,1.4
				C47,9.4,47,9.7,47,9.8c0.4,0.6,2.1,0.3,2.6,0.2c0.1,0,0.5,0,0.6,0c0.1-0.1,0.1-0.3,0.1-0.3c0.1-0.1,0.3,0,0.4-0.1
				c0.2-0.2,0.1-0.9,0.1-1.2c-0.1-0.3,0.4-0.5,0.3-0.7c-0.1-0.1-0.3-0.2-0.4-0.4c-0.1-0.1-0.2-0.4-0.4-0.5c-0.3-0.2-0.9-0.1-1.3-0.1
				S48.4,6.6,48,6.6c-0.2,0.1-0.4-0.3-0.4-0.4C47.5,6.1,47,6.4,47,6.5L47,6.5z"/>
		</g>
	</g>
</g>
</svg>
